<?xml version="1.0" encoding="UTF-8" standalone="no"?>
<!DOCTYPE svg PUBLIC "-//W3C//DTD SVG 1.1//EN" "http://www.w3.org/Graphics/SVG/1.1/DTD/svg11.dtd">
<!-- Generated by Microsoft Visio, SVG Export interface-mismatched-mtu.svg Page-1 -->
<svg xmlns="http://www.w3.org/2000/svg" xmlns:xlink="http://www.w3.org/1999/xlink" xmlns:ev="http://www.w3.org/2001/xml-events"
		xmlns:v="http://schemas.microsoft.com/visio/2003/SVGExtensions/" width="6.62677in" height="2.5331in"
		viewBox="0 0 477.128 182.383" xml:space="preserve" color-interpolation-filters="sRGB" class="st23">
	<v:documentProperties v:langID="1026" v:viewMarkup="false"/>

	<style type="text/css">
	<![CDATA[
		.st1 {fill:#000000;stroke:#000000;stroke-linecap:round;stroke-linejoin:round;stroke-width:1}
		.st2 {fill:#ffffff;font-family:Arial;font-size:0.833336em;font-weight:bold}
		.st3 {font-size:1em;font-weight:normal}
		.st4 {fill:#fee599;font-size:1em}
		.st5 {fill:#0e6f9c;stroke:none;stroke-linecap:round;stroke-linejoin:round;stroke-width:0.749998}
		.st6 {fill:none;stroke:#f2f2f2;stroke-linecap:round;stroke-linejoin:round;stroke-width:0.594973}
		.st7 {fill:#1082b8;stroke:none;stroke-linecap:round;stroke-linejoin:round;stroke-width:0.749998}
		.st8 {fill:none;stroke:#ffffff;stroke-linecap:round;stroke-linejoin:round;stroke-width:0.999997}
		.st9 {fill:#ffffff;stroke:none;stroke-linecap:round;stroke-linejoin:round;stroke-width:0.749998}
		.st10 {fill:none;stroke:none;stroke-width:1}
		.st11 {fill:none}
		.st12 {stroke:#f2f2f2;stroke-linecap:round;stroke-linejoin:round;stroke-width:0.594973}
		.st13 {fill:none;stroke:none;stroke-linecap:round;stroke-linejoin:round;stroke-width:0.749998}
		.st14 {fill:#ffffff;font-family:Arial;font-size:1.16666em}
		.st15 {stroke:#7f7f7f;stroke-linecap:round;stroke-linejoin:round;stroke-width:1}
		.st16 {fill:#ffffff;stroke:#000000;stroke-linecap:round;stroke-linejoin:round;stroke-width:0.999997}
		.st17 {fill:#000000;font-family:Arial;font-size:0.75em}
		.st18 {fill:#f2dcda;stroke:#000000;stroke-linecap:round;stroke-linejoin:round;stroke-width:0.999997}
		.st19 {fill:#000000;font-family:Arial;font-size:0.833336em}
		.st20 {font-size:1em}
		.st21 {fill:#ffffff;font-family:Arial;font-size:0.833336em}
		.st22 {fill:#d9958f;font-size:1em;font-weight:bold}
		.st23 {fill:none;fill-rule:evenodd;font-size:12px;overflow:visible;stroke-linecap:square;stroke-miterlimit:3}
	]]>
	</style>

	<g v:mID="0" v:index="1" v:groupContext="foregroundPage">
		<title>Page-1</title>
		<v:pageProperties v:drawingScale="0.0393701" v:pageScale="0.0393701" v:drawingUnits="24" v:shadowOffsetX="9"
				v:shadowOffsetY="-9"/>
		<v:layer v:name="Connector" v:index="0"/>
		<g id="group63-1" transform="translate(0.5,-0.499998)" v:mID="63" v:groupContext="group">
			<title>Sheet.63</title>
			<g id="shape49-2" v:mID="49" v:groupContext="shape" transform="translate(-7.99361E-014,-98.9679)">
				<title>Rectangle.85</title>
				<desc>R1# show run interface eth0/1 ! interface Ethernet0/1 ip addr...</desc>
				<v:userDefs>
					<v:ud v:nameU="visVersion" v:val="VT0(15):26"/>
				</v:userDefs>
				<v:textBlock v:margins="rect(6,6,6,6)" v:tabSpace="42.5197" v:verticalAlign="0"/>
				<v:textRect cx="90.6623" cy="141.176" width="181.33" height="82.4154"/>
				<rect x="0" y="99.9679" width="181.325" height="82.4154" rx="5.66929" ry="5.66929" class="st1"/>
				<text x="6" y="114.97" class="st2" v:langID="1033"><v:paragraph/><v:tabList/>R1# show run interface eth0/1<v:newlineChar/><tspan
							x="6" dy="1.2em" class="st3">!<v:newlineChar/></tspan><tspan x="6" dy="1.2em" class="st3">interface Ethernet</tspan><tspan
							class="st3">0</tspan><tspan class="st3">/</tspan><tspan class="st3">1<v:newlineChar/></tspan><tspan
							x="6" dy="1.2em" class="st3"> </tspan><tspan class="st3">ip address </tspan><tspan class="st3">10</tspan><tspan
							class="st3">.</tspan><tspan class="st3">10</tspan><tspan class="st3">.</tspan><tspan class="st3">1</tspan><tspan
							class="st3">.</tspan><tspan class="st3">1 255</tspan><tspan class="st3">.</tspan><tspan class="st3">255</tspan><tspan
							class="st3">.</tspan><tspan class="st3">255</tspan><tspan class="st3">.</tspan><tspan class="st3">0<v:newlineChar/></tspan><tspan
							x="6" dy="1.2em" class="st4"> </tspan><tspan class="st4">ip mtu </tspan><tspan class="st4">1400<v:newlineChar/></tspan><tspan
							x="6" dy="1.2em" class="st3">!</tspan></text>			</g>
			<g id="group22-29" transform="translate(16.4111,-53.6335)" v:mID="22" v:groupContext="group">
				<title>Sheet.22</title>
				<g id="shape23-30" v:mID="23" v:groupContext="shape" transform="translate(0.143199,-4.26326E-013)">
					<title>Sheet.23</title>
					<path d="M93.79 166.3 C93.79 166.3 93.79 166.3 93.79 166.3 C93.79 175.2 72.74 182.38 46.96 182.38 C21.05 182.38
								 0 175.2 0 166.3 C0 157.4 21.05 150.22 46.96 150.22 C72.74 150.22 93.79 157.4 93.79 166.3 Z"
							class="st5"/>
				</g>
				<g id="shape24-32" v:mID="24" v:groupContext="shape" transform="translate(0.143199,-4.26326E-013)">
					<title>Sheet.24</title>
					<path d="M93.79 166.3 C93.79 166.3 93.79 166.3 93.79 166.3 C93.79 175.2 72.74 182.38 46.96 182.38 C21.05 182.38
								 0 175.2 0 166.3 C0 157.4 21.05 150.22 46.96 150.22 C72.74 150.22 93.79 157.4 93.79 166.3 Z"
							class="st6"/>
				</g>
				<g id="shape25-34" v:mID="25" v:groupContext="shape" transform="translate(-6.79456E-013,-15.6508)">
					<title>Sheet.25</title>
					<path d="M0 159.41 L0 182.38 L93.93 182.38 L93.93 159.41 L0 159.41 Z" class="st5"/>
				</g>
				<g id="shape26-36" v:mID="26" v:groupContext="shape" transform="translate(0.143199,-22.9737)">
					<title>Sheet.26</title>
					<path d="M93.79 166.3 C93.79 166.3 93.79 166.3 93.79 166.3 C93.79 175.2 72.74 182.38 46.96 182.38 C21.05 182.38
								 0 175.2 0 166.3 C0 157.4 21.05 150.22 46.96 150.22 C72.74 150.22 93.79 157.4 93.79 166.3 Z"
							class="st7"/>
				</g>
				<g id="shape27-38" v:mID="27" v:groupContext="shape" transform="translate(0.143199,-22.9737)">
					<title>Sheet.27</title>
					<path d="M93.79 166.3 C93.79 166.3 93.79 166.3 93.79 166.3 C93.79 175.2 72.74 182.38 46.96 182.38 C21.05 182.38
								 0 175.2 0 166.3 C0 157.4 21.05 150.22 46.96 150.22 C72.74 150.22 93.79 157.4 93.79 166.3 Z"
							class="st8"/>
				</g>
				<g id="shape28-40" v:mID="28" v:groupContext="shape" transform="translate(48.2527,-40.3476)">
					<title>Sheet.28</title>
					<path d="M0 180.09 L6.87 182.38 L23.2 175.92 L30.78 177.79 L26.78 171.9 L7.16 171.9 L15.32 173.91 L0 180.09 Z"
							class="st7"/>
				</g>
				<g id="shape29-42" v:mID="29" v:groupContext="shape" transform="translate(14.4614,-27.8557)">
					<title>Sheet.29</title>
					<path d="M30.93 174.2 L24.05 171.9 L7.73 178.51 L0 176.64 L4.15 182.38 L23.77 182.38 L15.46 180.37 L30.93 174.2
								 Z" class="st7"/>
				</g>
				<g id="shape30-44" v:mID="30" v:groupContext="shape" transform="translate(16.1797,-40.6347)">
					<title>Sheet.30</title>
					<path d="M0 174.2 L6.87 171.9 L23.2 178.51 L30.93 176.64 L26.92 182.38 L7.16 182.38 L15.46 180.37 L0 174.2 Z"
							class="st7"/>
				</g>
				<g id="shape31-46" v:mID="31" v:groupContext="shape" transform="translate(47.2505,-27.1377)">
					<title>Sheet.31</title>
					<path d="M30.78 180.09 L23.91 182.38 L7.59 175.92 L0 177.79 L4.01 171.9 L23.63 171.9 L15.46 173.91 L30.78 180.09
								 Z" class="st7"/>
				</g>
				<g id="shape32-48" v:mID="32" v:groupContext="shape" transform="translate(48.8255,-39.7732)">
					<title>Sheet.32</title>
					<path d="M0 180.09 L6.87 182.38 L23.2 175.92 L30.78 177.79 L26.78 171.9 L7.16 171.9 L15.32 173.91 L0 180.09 Z"
							class="st9"/>
				</g>
				<g id="shape33-50" v:mID="33" v:groupContext="shape" transform="translate(15.0342,-27.2813)">
					<title>Sheet.33</title>
					<path d="M30.93 174.2 L24.05 171.9 L7.73 178.51 L0 176.64 L4.15 182.38 L23.77 182.38 L15.46 180.37 L30.93 174.2
								 Z" class="st9"/>
				</g>
				<g id="shape34-52" v:mID="34" v:groupContext="shape" transform="translate(16.7524,-40.0604)">
					<title>Sheet.34</title>
					<path d="M0 174.2 L6.87 171.9 L23.2 178.51 L30.93 176.64 L26.92 182.38 L7.16 182.38 L15.46 180.37 L0 174.2 Z"
							class="st9"/>
				</g>
				<g id="shape35-54" v:mID="35" v:groupContext="shape" transform="translate(47.8232,-26.5634)">
					<title>Sheet.35</title>
					<path d="M30.78 180.09 L23.91 182.38 L7.59 175.92 L0 177.79 L4.01 171.9 L23.63 171.9 L15.46 173.91 L30.78 180.09
								 Z" class="st9"/>
				</g>
				<g id="group36-56" transform="translate(93.9281,-15.6508)" v:mID="36" v:groupContext="group">
					<title>Sheet.36</title>
					<g id="shape37-57" v:mID="37" v:groupContext="shape">
						<title>Sheet.37</title>
						<path d="M0 159.27 L0 182.38 L0 159.27 Z" class="st10"/>
					</g>
					<g id="shape38-59" v:mID="38" v:groupContext="shape">
						<title>Sheet.38</title>
						<path d="M0 159.27 L0 182.38 L0 159.27 Z" class="st11"/>
						<path d="M0 159.27 L0 182.38" class="st12"/>
					</g>
				</g>
				<g id="shape39-62" v:mID="39" v:groupContext="shape" transform="translate(0.272199,-0.192899)">
					<title>Sheet.39</title>
					<desc>SW1</desc>
					<v:userDefs/>
					<v:textBlock v:margins="rect(3.99998,3.99998,3.99998,3.99998)" v:tabSpace="42.5195"/>
					<v:textRect cx="47.251" cy="171.862" width="94.52" height="21.0398"/>
					<rect x="0" y="161.343" width="94.5038" height="21.0398" class="st13"/>
					<text x="25.84" y="175.71" class="st14" v:langID="1033"><v:paragraph v:spLine="-1.1" v:horizAlign="1"/><v:tabList/>1.1.1.1</text>				</g>
			</g>
			<g id="shape40-65" v:mID="40" v:groupContext="shape" v:layerMember="0" transform="translate(132.567,-72.7675)">
				<title>Dynamic connector</title>
				<path d="M0 182.38 L211.87 182.38 L0 182.38 Z" class="st11"/>
				<path d="M0 182.38 L211.87 182.38" class="st15"/>
			</g>
			<g id="shape45-68" v:mID="45" v:groupContext="shape" transform="translate(112.157,-66.3865)">
				<title>Rectangle.96</title>
				<desc>C</desc>
				<v:userDefs>
					<v:ud v:nameU="visVersion" v:val="VT0(15):26"/>
				</v:userDefs>
				<v:textBlock v:margins="rect(0,0,0,0)" v:tabSpace="42.5195"/>
				<v:textRect cx="10.2038" cy="176.002" width="20.42" height="12.7558"/>
				<path d="M0 180.96 A1.41735 1.41735 -180 0 0 1.42 182.38 L18.99 182.38 A1.41735 1.41735 -180 0 0 20.41 180.96 L20.41
							 171.04 A1.41735 1.41735 -180 0 0 18.99 169.62 L1.42 169.62 A1.41735 1.41735 -180 0 0 0 171.04 L0 180.96
							 Z" class="st16"/>
				<text x="3.95" y="178.7" class="st17" v:langID="1033"><v:paragraph v:horizAlign="1"/><v:tabList/>0/1</text>			</g>
			<g id="shape46-71" v:mID="46" v:groupContext="shape" transform="translate(344.439,-66.3865)">
				<title>Rectangle.50</title>
				<desc>C</desc>
				<v:userDefs>
					<v:ud v:nameU="visVersion" v:val="VT0(15):26"/>
				</v:userDefs>
				<v:textBlock v:margins="rect(0,0,0,0)" v:tabSpace="42.5195"/>
				<v:textRect cx="10.2038" cy="176.002" width="20.42" height="12.7558"/>
				<path d="M0 180.96 A1.41735 1.41735 -180 0 0 1.42 182.38 L18.99 182.38 A1.41735 1.41735 -180 0 0 20.41 180.96 L20.41
							 171.04 A1.41735 1.41735 -180 0 0 18.99 169.62 L1.42 169.62 A1.41735 1.41735 -180 0 0 0 171.04 L0 180.96
							 Z" class="st16"/>
				<text x="3.95" y="178.7" class="st17" v:langID="1033"><v:paragraph v:horizAlign="1"/><v:tabList/>0/1</text>			</g>
			<g id="shape48-74" v:mID="48" v:groupContext="shape" transform="translate(72.6632,-7.22845)">
				<title>Sheet.48</title>
				<desc>1. Interface must be UP/UP. 2. ACL must not filter OSPF messa...</desc>
				<v:userDefs/>
				<v:textBlock v:margins="rect(0,5.6693,5.6693,8.50395)" v:tabSpace="42.5197" v:verticalAlign="2"/>
				<v:textRect cx="51.3059" cy="154.815" width="102.62" height="55.1323"/>
				<path d="M43.35 145.18 L0 145.18 L0 182.38 L102.61 182.38 L102.61 145.18 L59.27 145.18 L51.3 127.25 L43.35 145.18
							 Z" class="st18"/>
				<text x="8.55" y="161.71" class="st19" v:langID="1033"><v:paragraph v:horizAlign="1"/><v:tabList/>MTU is mismatched <tspan
							x="21.59" dy="1.2em" class="st20">on both sides</tspan>.</text>			</g>
			<g id="shape50-78" v:mID="50" v:groupContext="shape" transform="translate(262.071,-98.9679)">
				<title>Rectangle.50</title>
				<desc>R2# sh ip ospf neighbor</desc>
				<v:userDefs>
					<v:ud v:nameU="visVersion" v:val="VT0(15):26"/>
				</v:userDefs>
				<v:textBlock v:margins="rect(6,6,6,6)" v:tabSpace="42.5197" v:verticalAlign="0"/>
				<v:textRect cx="107.028" cy="141.176" width="214.06" height="82.4154"/>
				<rect x="0" y="99.9679" width="214.057" height="82.4154" rx="5.66929" ry="5.66929" class="st1"/>
				<text x="6" y="114.97" class="st2" v:langID="1033"><v:paragraph/><v:tabList/>R2# sh ip ospf neighbor</text>			</g>
			<g id="shape51-81" v:mID="51" v:groupContext="shape" transform="translate(244.336,2.84217E-014)">
				<title>Sheet.51</title>
				<desc>1. Interface must be UP/UP. 2. ACL must not filter OSPF messa...</desc>
				<v:userDefs/>
				<v:textBlock v:margins="rect(0,5.6693,5.6693,8.50395)" v:tabSpace="42.5197" v:verticalAlign="2"/>
				<v:textRect cx="79.0438" cy="148.239" width="158.1" height="68.2828"/>
				<path d="M66.78 136.3 L0 136.3 L0 182.38 L158.09 182.38 L158.09 136.3 L91.31 136.3 L79.04 114.1 L66.78 136.3 Z"
						class="st18"/>
				<text x="20.99" y="149.71" class="st19" v:langID="1033"><v:paragraph v:horizAlign="1"/><v:tabList/>The routers establish initial <tspan
							x="16.81" dy="1.2em" class="st20">OSPF adjacency</tspan>, but cannot <tspan x="31.82" dy="1.2em"
							class="st20">exchange their LSDB</tspan>.</text>			</g>
			<g id="group4-86" transform="translate(368.816,-53.6335)" v:mID="4" v:groupContext="group">
				<title>Sheet.4</title>
				<g id="shape5-87" v:mID="5" v:groupContext="shape" transform="translate(0.143199,-4.26326E-013)">
					<title>Sheet.5</title>
					<path d="M93.79 166.3 C93.79 166.3 93.79 166.3 93.79 166.3 C93.79 175.2 72.74 182.38 46.96 182.38 C21.05 182.38
								 0 175.2 0 166.3 C0 157.4 21.05 150.22 46.96 150.22 C72.74 150.22 93.79 157.4 93.79 166.3 Z"
							class="st5"/>
				</g>
				<g id="shape6-89" v:mID="6" v:groupContext="shape" transform="translate(0.143199,-4.26326E-013)">
					<title>Sheet.6</title>
					<path d="M93.79 166.3 C93.79 166.3 93.79 166.3 93.79 166.3 C93.79 175.2 72.74 182.38 46.96 182.38 C21.05 182.38
								 0 175.2 0 166.3 C0 157.4 21.05 150.22 46.96 150.22 C72.74 150.22 93.79 157.4 93.79 166.3 Z"
							class="st6"/>
				</g>
				<g id="shape7-91" v:mID="7" v:groupContext="shape" transform="translate(-6.79456E-013,-15.6508)">
					<title>Sheet.7</title>
					<path d="M0 159.41 L0 182.38 L93.93 182.38 L93.93 159.41 L0 159.41 Z" class="st5"/>
				</g>
				<g id="shape8-93" v:mID="8" v:groupContext="shape" transform="translate(0.143199,-22.9737)">
					<title>Sheet.8</title>
					<path d="M93.79 166.3 C93.79 166.3 93.79 166.3 93.79 166.3 C93.79 175.2 72.74 182.38 46.96 182.38 C21.05 182.38
								 0 175.2 0 166.3 C0 157.4 21.05 150.22 46.96 150.22 C72.74 150.22 93.79 157.4 93.79 166.3 Z"
							class="st7"/>
				</g>
				<g id="shape9-95" v:mID="9" v:groupContext="shape" transform="translate(0.143199,-22.9737)">
					<title>Sheet.9</title>
					<path d="M93.79 166.3 C93.79 166.3 93.79 166.3 93.79 166.3 C93.79 175.2 72.74 182.38 46.96 182.38 C21.05 182.38
								 0 175.2 0 166.3 C0 157.4 21.05 150.22 46.96 150.22 C72.74 150.22 93.79 157.4 93.79 166.3 Z"
							class="st8"/>
				</g>
				<g id="shape10-97" v:mID="10" v:groupContext="shape" transform="translate(48.2527,-40.3476)">
					<title>Sheet.10</title>
					<path d="M0 180.09 L6.87 182.38 L23.2 175.92 L30.78 177.79 L26.78 171.9 L7.16 171.9 L15.32 173.91 L0 180.09 Z"
							class="st7"/>
				</g>
				<g id="shape11-99" v:mID="11" v:groupContext="shape" transform="translate(14.4614,-27.8557)">
					<title>Sheet.11</title>
					<path d="M30.93 174.2 L24.05 171.9 L7.73 178.51 L0 176.64 L4.15 182.38 L23.77 182.38 L15.46 180.37 L30.93 174.2
								 Z" class="st7"/>
				</g>
				<g id="shape12-101" v:mID="12" v:groupContext="shape" transform="translate(16.1797,-40.6347)">
					<title>Sheet.12</title>
					<path d="M0 174.2 L6.87 171.9 L23.2 178.51 L30.93 176.64 L26.92 182.38 L7.16 182.38 L15.46 180.37 L0 174.2 Z"
							class="st7"/>
				</g>
				<g id="shape13-103" v:mID="13" v:groupContext="shape" transform="translate(47.2505,-27.1377)">
					<title>Sheet.13</title>
					<path d="M30.78 180.09 L23.91 182.38 L7.59 175.92 L0 177.79 L4.01 171.9 L23.63 171.9 L15.46 173.91 L30.78 180.09
								 Z" class="st7"/>
				</g>
				<g id="shape14-105" v:mID="14" v:groupContext="shape" transform="translate(48.8255,-39.7732)">
					<title>Sheet.14</title>
					<path d="M0 180.09 L6.87 182.38 L23.2 175.92 L30.78 177.79 L26.78 171.9 L7.16 171.9 L15.32 173.91 L0 180.09 Z"
							class="st9"/>
				</g>
				<g id="shape15-107" v:mID="15" v:groupContext="shape" transform="translate(15.0342,-27.2813)">
					<title>Sheet.15</title>
					<path d="M30.93 174.2 L24.05 171.9 L7.73 178.51 L0 176.64 L4.15 182.38 L23.77 182.38 L15.46 180.37 L30.93 174.2
								 Z" class="st9"/>
				</g>
				<g id="shape16-109" v:mID="16" v:groupContext="shape" transform="translate(16.7524,-40.0604)">
					<title>Sheet.16</title>
					<path d="M0 174.2 L6.87 171.9 L23.2 178.51 L30.93 176.64 L26.92 182.38 L7.16 182.38 L15.46 180.37 L0 174.2 Z"
							class="st9"/>
				</g>
				<g id="shape17-111" v:mID="17" v:groupContext="shape" transform="translate(47.8232,-26.5634)">
					<title>Sheet.17</title>
					<path d="M30.78 180.09 L23.91 182.38 L7.59 175.92 L0 177.79 L4.01 171.9 L23.63 171.9 L15.46 173.91 L30.78 180.09
								 Z" class="st9"/>
				</g>
				<g id="group18-113" transform="translate(93.9281,-15.6508)" v:mID="18" v:groupContext="group">
					<title>Sheet.18</title>
					<g id="shape19-114" v:mID="19" v:groupContext="shape">
						<title>Sheet.19</title>
						<path d="M0 159.27 L0 182.38 L0 159.27 Z" class="st10"/>
					</g>
					<g id="shape20-116" v:mID="20" v:groupContext="shape">
						<title>Sheet.20</title>
						<path d="M0 159.27 L0 182.38 L0 159.27 Z" class="st11"/>
						<path d="M0 159.27 L0 182.38" class="st12"/>
					</g>
				</g>
				<g id="shape21-119" v:mID="21" v:groupContext="shape" transform="translate(0.272199,-0.192899)">
					<title>Sheet.21</title>
					<desc>SW1</desc>
					<v:userDefs/>
					<v:textBlock v:margins="rect(3.99998,3.99998,3.99998,3.99998)" v:tabSpace="42.5195"/>
					<v:textRect cx="47.251" cy="171.862" width="94.52" height="21.0398"/>
					<rect x="0" y="161.343" width="94.5038" height="21.0398" class="st13"/>
					<text x="25.84" y="175.71" class="st14" v:langID="1033"><v:paragraph v:spLine="-1.1" v:horizAlign="1"/><v:tabList/>2.2.2.2</text>				</g>
			</g>
			<g id="group62-122" transform="translate(263.165,-122.459)" v:mID="62" v:groupContext="group">
				<title>Sheet.62</title>
				<g id="shape53-123" v:mID="53" v:groupContext="shape">
					<title>Rectangle</title>
					<desc>Neighbor ID 1.1.1.1</desc>
					<v:userDefs>
						<v:ud v:nameU="visVersion" v:val="VT0(15):26"/>
					</v:userDefs>
					<v:textBlock v:margins="rect(6,3,6,4)" v:tabSpace="42.5197" v:verticalAlign="0"/>
					<v:textRect cx="32.56" cy="164.667" width="65.12" height="35.4331"/>
					<rect x="0" y="146.95" width="65.1199" height="35.4331" class="st1"/>
					<text x="4" y="161.95" class="st21" v:langID="1033"><v:paragraph/><v:tabList/>Neighbor ID<v:newlineChar/><tspan
								x="4" dy="1.2em" class="st20">1</tspan>.1.1.1  </text>				</g>
				<g id="shape56-127" v:mID="56" v:groupContext="shape" transform="translate(65.1199,-5.68434E-014)">
					<title>Rectangle.56</title>
					<desc>State EXSTART/BDR</desc>
					<v:userDefs>
						<v:ud v:nameU="visVersion" v:val="VT0(15):26"/>
					</v:userDefs>
					<v:textBlock v:margins="rect(6,3,6,3)" v:tabSpace="42.5197" v:verticalAlign="0"/>
					<v:textRect cx="40.8732" cy="164.667" width="81.75" height="35.4331"/>
					<rect x="0" y="146.95" width="81.7463" height="35.4331" class="st1"/>
					<text x="3" y="161.95" class="st21" v:langID="1033"><v:paragraph/><v:tabList/>State<v:newlineChar/><tspan x="3"
								dy="1.2em" class="st22">EXSTART</tspan><tspan class="st22">/</tspan><tspan class="st22">BDR</tspan></text>				</g>
				<g id="shape57-133" v:mID="57" v:groupContext="shape" transform="translate(146.866,-5.68434E-014)">
					<title>Rectangle.57</title>
					<desc>Interface Ethernet0/1</desc>
					<v:userDefs>
						<v:ud v:nameU="visVersion" v:val="VT0(15):26"/>
					</v:userDefs>
					<v:textBlock v:margins="rect(6,3,6,3)" v:tabSpace="42.5197" v:verticalAlign="0"/>
					<v:textRect cx="32.5015" cy="164.667" width="65.01" height="35.4331"/>
					<rect x="0" y="146.95" width="65.0029" height="35.4331" class="st1"/>
					<text x="3" y="161.95" class="st21" v:langID="1033"><v:paragraph/><v:tabList/>Interface<v:newlineChar/><tspan
								x="3" dy="1.2em" class="st20">Ethernet</tspan>0/1</text>				</g>
			</g>
		</g>
	</g>
</svg>
