<?xml version="1.0" encoding="UTF-8" standalone="no"?>
<!DOCTYPE svg PUBLIC "-//W3C//DTD SVG 1.1//EN" "http://www.w3.org/Graphics/SVG/1.1/DTD/svg11.dtd">
<!-- Generated by Microsoft Visio, SVG Export ospf-per-interface-authentication.svg Page-1 -->
<svg xmlns="http://www.w3.org/2000/svg" xmlns:xlink="http://www.w3.org/1999/xlink" xmlns:ev="http://www.w3.org/2001/xml-events"
		xmlns:v="http://schemas.microsoft.com/visio/2003/SVGExtensions/" width="4.59744in" height="2.39095in"
		viewBox="0 0 331.016 172.149" xml:space="preserve" color-interpolation-filters="sRGB" class="st18">
	<v:documentProperties v:langID="1033" v:viewMarkup="false"/>

	<style type="text/css">
	<![CDATA[
		.st1 {fill:none;stroke:none;stroke-linecap:round;stroke-linejoin:round;stroke-width:0.75}
		.st2 {fill:#000000;font-family:Arial;font-size:1.00001em}
		.st3 {font-size:1em}
		.st4 {fill:#0e6f9c;stroke:none;stroke-linecap:round;stroke-linejoin:round;stroke-width:0.75}
		.st5 {fill:none;stroke:#f2f2f2;stroke-linecap:round;stroke-linejoin:round;stroke-width:0.594974}
		.st6 {fill:#1082b8;stroke:none;stroke-linecap:round;stroke-linejoin:round;stroke-width:0.75}
		.st7 {fill:none;stroke:#ffffff;stroke-linecap:round;stroke-linejoin:round;stroke-width:1}
		.st8 {fill:#ffffff;stroke:none;stroke-linecap:round;stroke-linejoin:round;stroke-width:0.75}
		.st9 {fill:none}
		.st10 {stroke:#f2f2f2;stroke-linecap:round;stroke-linejoin:round;stroke-width:0.594974}
		.st11 {fill:#ffffff;font-family:Arial;font-size:1.16666em}
		.st12 {stroke:#000000;stroke-linecap:round;stroke-linejoin:round;stroke-width:1}
		.st13 {fill:#ffffff;stroke:#000000;stroke-linecap:round;stroke-linejoin:round;stroke-width:1}
		.st14 {fill:#000000;font-family:Arial;font-size:0.75em}
		.st15 {fill:#fee599;stroke:#000000;stroke-linecap:round;stroke-linejoin:round;stroke-width:0.75}
		.st16 {fill:#000000;font-family:Arial;font-size:0.666664em}
		.st17 {fill:#fbd7bb;stroke:#000000;stroke-linecap:round;stroke-linejoin:round;stroke-width:0.75}
		.st18 {fill:none;fill-rule:evenodd;font-size:12px;overflow:visible;stroke-linecap:square;stroke-miterlimit:3}
	]]>
	</style>

	<g v:mID="0" v:index="1" v:groupContext="foregroundPage">
		<title>Page-1</title>
		<v:pageProperties v:drawingScale="0.0393701" v:pageScale="0.0393701" v:drawingUnits="24" v:shadowOffsetX="9"
				v:shadowOffsetY="-9"/>
		<g id="group66-1" transform="translate(0.386488,-0.375)" v:mID="66" v:groupContext="group">
			<title>Sheet.66</title>
			<g id="shape1-2" v:mID="1" v:groupContext="shape" transform="translate(101.691,-43.7145)">
				<title>Sheet.1</title>
				<desc>Different interfaces can have different authentication types ...</desc>
				<v:textBlock v:margins="rect(4,4,4,4)" v:tabSpace="42.5197"/>
				<v:textRect cx="63.7656" cy="144.101" width="127.54" height="56.0955"/>
				<rect x="0" y="116.053" width="127.531" height="56.0955" class="st1"/>
				<text x="13.41" y="126.1" class="st2" v:langID="1033"><v:paragraph v:horizAlign="1"/><v:tabList/>Different interfaces <tspan
							x="16.07" dy="1.2em" class="st3">can have different  </tspan><tspan x="10.39" dy="1.2em" class="st3">authentication types </tspan><tspan
							x="38.08" dy="1.2em" class="st3">and keys.</tspan></text>			</g>
			<g id="shape4-8" v:mID="4" v:groupContext="shape" transform="translate(0.113512,-2.84217E-14)">
				<title>Sheet.4</title>
				<path d="M74.35 159.4 C74.35 159.4 74.35 159.4 74.35 159.4 C74.35 166.46 57.66 172.15 37.23 172.15 C16.68 172.15
							 0 166.46 0 159.4 C0 152.34 16.68 146.65 37.23 146.65 C57.66 146.65 74.35 152.34 74.35 159.4 Z"
						class="st4"/>
			</g>
			<g id="shape5-10" v:mID="5" v:groupContext="shape" transform="translate(0.113512,-2.84217E-14)">
				<title>Sheet.5</title>
				<path d="M74.35 159.4 C74.35 159.4 74.35 159.4 74.35 159.4 C74.35 166.46 57.66 172.15 37.23 172.15 C16.68 172.15
							 0 166.46 0 159.4 C0 152.34 16.68 146.65 37.23 146.65 C57.66 146.65 74.35 152.34 74.35 159.4 Z"
						class="st5"/>
			</g>
			<g id="shape6-12" v:mID="6" v:groupContext="shape" transform="translate(1.59872E-14,-12.4076)">
				<title>Sheet.6</title>
				<path d="M0 153.93 L0 172.15 L74.47 172.15 L74.47 153.93 L0 153.93 Z" class="st4"/>
			</g>
			<g id="shape7-14" v:mID="7" v:groupContext="shape" transform="translate(0.113512,-18.213)">
				<title>Sheet.7</title>
				<path d="M74.35 159.4 C74.35 159.4 74.35 159.4 74.35 159.4 C74.35 166.46 57.66 172.15 37.23 172.15 C16.68 172.15
							 0 166.46 0 159.4 C0 152.34 16.68 146.65 37.23 146.65 C57.66 146.65 74.35 152.34 74.35 159.4 Z"
						class="st6"/>
			</g>
			<g id="shape8-16" v:mID="8" v:groupContext="shape" transform="translate(0.113512,-18.213)">
				<title>Sheet.8</title>
				<path d="M74.35 159.4 C74.35 159.4 74.35 159.4 74.35 159.4 C74.35 166.46 57.66 172.15 37.23 172.15 C16.68 172.15
							 0 166.46 0 159.4 C0 152.34 16.68 146.65 37.23 146.65 C57.66 146.65 74.35 152.34 74.35 159.4 Z"
						class="st7"/>
			</g>
			<g id="shape9-18" v:mID="9" v:groupContext="shape" transform="translate(38.2536,-31.9866)">
				<title>Sheet.9</title>
				<path d="M0 170.33 L5.45 172.15 L18.39 167.02 L24.4 168.5 L21.23 163.84 L5.67 163.84 L12.14 165.43 L0 170.33 Z"
						class="st6"/>
			</g>
			<g id="shape10-20" v:mID="10" v:groupContext="shape" transform="translate(11.4647,-22.0832)">
				<title>Sheet.10</title>
				<path d="M24.52 165.66 L19.07 163.84 L6.13 169.08 L0 167.6 L3.29 172.15 L18.84 172.15 L12.26 170.56 L24.52 165.66
							 Z" class="st6"/>
			</g>
			<g id="shape11-22" v:mID="11" v:groupContext="shape" transform="translate(12.8269,-32.2143)">
				<title>Sheet.11</title>
				<path d="M0 165.66 L5.45 163.84 L18.39 169.08 L24.52 167.6 L21.34 172.15 L5.67 172.15 L12.26 170.56 L0 165.66 Z"
						class="st6"/>
			</g>
			<g id="shape12-24" v:mID="12" v:groupContext="shape" transform="translate(37.4589,-21.5141)">
				<title>Sheet.12</title>
				<path d="M24.4 170.33 L18.96 172.15 L6.01 167.02 L0 168.5 L3.18 163.84 L18.73 163.84 L12.26 165.43 L24.4 170.33 Z"
						class="st6"/>
			</g>
			<g id="shape13-26" v:mID="13" v:groupContext="shape" transform="translate(38.7076,-31.5312)">
				<title>Sheet.13</title>
				<path d="M0 170.33 L5.45 172.15 L18.39 167.02 L24.4 168.5 L21.23 163.84 L5.67 163.84 L12.14 165.43 L0 170.33 Z"
						class="st8"/>
			</g>
			<g id="shape14-28" v:mID="14" v:groupContext="shape" transform="translate(11.9188,-21.6279)">
				<title>Sheet.14</title>
				<path d="M24.52 165.66 L19.07 163.84 L6.13 169.08 L0 167.6 L3.29 172.15 L18.84 172.15 L12.26 170.56 L24.52 165.66
							 Z" class="st8"/>
			</g>
			<g id="shape15-30" v:mID="15" v:groupContext="shape" transform="translate(13.2809,-31.7589)">
				<title>Sheet.15</title>
				<path d="M0 165.66 L5.45 163.84 L18.39 169.08 L24.52 167.6 L21.34 172.15 L5.67 172.15 L12.26 170.56 L0 165.66 Z"
						class="st8"/>
			</g>
			<g id="shape16-32" v:mID="16" v:groupContext="shape" transform="translate(37.913,-21.0588)">
				<title>Sheet.16</title>
				<path d="M24.4 170.33 L18.96 172.15 L6.01 167.02 L0 168.5 L3.18 163.84 L18.73 163.84 L12.26 165.43 L24.4 170.33 Z"
						class="st8"/>
			</g>
			<g id="shape17-34" v:mID="17" v:groupContext="shape" transform="translate(74.4639,-12.4076)">
				<title>Sheet.17</title>
				<path d="M0 153.82 L0 172.15 L0 153.82 Z" class="st9"/>
				<path d="M0 153.82 L0 172.15" class="st10"/>
			</g>
			<g id="shape18-37" v:mID="18" v:groupContext="shape" transform="translate(0.215787,-0.154109)">
				<title>Sheet.18</title>
				<desc>SW1</desc>
				<v:userDefs/>
				<v:textBlock v:margins="rect(4,4,4,4)" v:tabSpace="42.5197"/>
				<v:textRect cx="37.46" cy="163.808" width="74.93" height="16.6799"/>
				<rect x="0" y="155.469" width="74.9201" height="16.6799" class="st1"/>
				<text x="16.05" y="167.66" class="st11" v:langID="1033"><v:paragraph v:spLine="-1.1" v:horizAlign="1"/><v:tabList/>1.1.1.1</text>			</g>
			<g id="shape20-40" v:mID="20" v:groupContext="shape" transform="translate(255.232,0)">
				<title>Sheet.20</title>
				<path d="M74.35 159.4 C74.35 159.4 74.35 159.4 74.35 159.4 C74.35 166.46 57.66 172.15 37.23 172.15 C16.68 172.15
							 0 166.46 0 159.4 C0 152.34 16.68 146.65 37.23 146.65 C57.66 146.65 74.35 152.34 74.35 159.4 Z"
						class="st4"/>
			</g>
			<g id="shape21-42" v:mID="21" v:groupContext="shape" transform="translate(255.232,0)">
				<title>Sheet.21</title>
				<path d="M74.35 159.4 C74.35 159.4 74.35 159.4 74.35 159.4 C74.35 166.46 57.66 172.15 37.23 172.15 C16.68 172.15
							 0 166.46 0 159.4 C0 152.34 16.68 146.65 37.23 146.65 C57.66 146.65 74.35 152.34 74.35 159.4 Z"
						class="st5"/>
			</g>
			<g id="shape22-44" v:mID="22" v:groupContext="shape" transform="translate(255.118,-12.4076)">
				<title>Sheet.22</title>
				<path d="M0 153.93 L0 172.15 L74.47 172.15 L74.47 153.93 L0 153.93 Z" class="st4"/>
			</g>
			<g id="shape23-46" v:mID="23" v:groupContext="shape" transform="translate(255.232,-18.213)">
				<title>Sheet.23</title>
				<path d="M74.35 159.4 C74.35 159.4 74.35 159.4 74.35 159.4 C74.35 166.46 57.66 172.15 37.23 172.15 C16.68 172.15
							 0 166.46 0 159.4 C0 152.34 16.68 146.65 37.23 146.65 C57.66 146.65 74.35 152.34 74.35 159.4 Z"
						class="st6"/>
			</g>
			<g id="shape24-48" v:mID="24" v:groupContext="shape" transform="translate(255.232,-18.213)">
				<title>Sheet.24</title>
				<path d="M74.35 159.4 C74.35 159.4 74.35 159.4 74.35 159.4 C74.35 166.46 57.66 172.15 37.23 172.15 C16.68 172.15
							 0 166.46 0 159.4 C0 152.34 16.68 146.65 37.23 146.65 C57.66 146.65 74.35 152.34 74.35 159.4 Z"
						class="st7"/>
			</g>
			<g id="shape25-50" v:mID="25" v:groupContext="shape" transform="translate(293.372,-31.9866)">
				<title>Sheet.25</title>
				<path d="M0 170.33 L5.45 172.15 L18.39 167.02 L24.4 168.5 L21.23 163.84 L5.67 163.84 L12.14 165.43 L0 170.33 Z"
						class="st6"/>
			</g>
			<g id="shape26-52" v:mID="26" v:groupContext="shape" transform="translate(266.583,-22.0832)">
				<title>Sheet.26</title>
				<path d="M24.52 165.66 L19.07 163.84 L6.13 169.08 L0 167.6 L3.29 172.15 L18.84 172.15 L12.26 170.56 L24.52 165.66
							 Z" class="st6"/>
			</g>
			<g id="shape27-54" v:mID="27" v:groupContext="shape" transform="translate(267.945,-32.2143)">
				<title>Sheet.27</title>
				<path d="M0 165.66 L5.45 163.84 L18.39 169.08 L24.52 167.6 L21.34 172.15 L5.67 172.15 L12.26 170.56 L0 165.66 Z"
						class="st6"/>
			</g>
			<g id="shape28-56" v:mID="28" v:groupContext="shape" transform="translate(292.577,-21.5141)">
				<title>Sheet.28</title>
				<path d="M24.4 170.33 L18.96 172.15 L6.01 167.02 L0 168.5 L3.18 163.84 L18.73 163.84 L12.26 165.43 L24.4 170.33 Z"
						class="st6"/>
			</g>
			<g id="shape29-58" v:mID="29" v:groupContext="shape" transform="translate(293.826,-31.5312)">
				<title>Sheet.29</title>
				<path d="M0 170.33 L5.45 172.15 L18.39 167.02 L24.4 168.5 L21.23 163.84 L5.67 163.84 L12.14 165.43 L0 170.33 Z"
						class="st8"/>
			</g>
			<g id="shape30-60" v:mID="30" v:groupContext="shape" transform="translate(267.037,-21.6279)">
				<title>Sheet.30</title>
				<path d="M24.52 165.66 L19.07 163.84 L6.13 169.08 L0 167.6 L3.29 172.15 L18.84 172.15 L12.26 170.56 L24.52 165.66
							 Z" class="st8"/>
			</g>
			<g id="shape31-62" v:mID="31" v:groupContext="shape" transform="translate(268.399,-31.7589)">
				<title>Sheet.31</title>
				<path d="M0 165.66 L5.45 163.84 L18.39 169.08 L24.52 167.6 L21.34 172.15 L5.67 172.15 L12.26 170.56 L0 165.66 Z"
						class="st8"/>
			</g>
			<g id="shape32-64" v:mID="32" v:groupContext="shape" transform="translate(293.031,-21.0588)">
				<title>Sheet.32</title>
				<path d="M24.4 170.33 L18.96 172.15 L6.01 167.02 L0 168.5 L3.18 163.84 L18.73 163.84 L12.26 165.43 L24.4 170.33 Z"
						class="st8"/>
			</g>
			<g id="shape33-66" v:mID="33" v:groupContext="shape" transform="translate(329.582,-12.4076)">
				<title>Sheet.33</title>
				<path d="M0 153.82 L0 172.15 L0 153.82 Z" class="st9"/>
				<path d="M0 153.82 L0 172.15" class="st10"/>
			</g>
			<g id="shape34-69" v:mID="34" v:groupContext="shape" transform="translate(255.334,-0.154109)">
				<title>Sheet.34</title>
				<desc>SW1</desc>
				<v:userDefs/>
				<v:textBlock v:margins="rect(4,4,4,4)" v:tabSpace="42.5197"/>
				<v:textRect cx="37.46" cy="163.808" width="74.93" height="16.6799"/>
				<rect x="0" y="155.469" width="74.9201" height="16.6799" class="st1"/>
				<text x="16.05" y="167.66" class="st11" v:langID="1033"><v:paragraph v:spLine="-1.1" v:horizAlign="1"/><v:tabList/>3.3.3.3</text>			</g>
			<g id="group35-72" transform="translate(127.559,-127.559)" v:mID="35" v:groupContext="group">
				<title>Sheet.35</title>
				<g id="shape36-73" v:mID="36" v:groupContext="shape" transform="translate(0.113512,0)">
					<title>Sheet.36</title>
					<path d="M74.35 159.4 C74.35 159.4 74.35 159.4 74.35 159.4 C74.35 166.46 57.66 172.15 37.23 172.15 C16.68 172.15
								 0 166.46 0 159.4 C0 152.34 16.68 146.65 37.23 146.65 C57.66 146.65 74.35 152.34 74.35 159.4 Z"
							class="st4"/>
				</g>
				<g id="shape37-75" v:mID="37" v:groupContext="shape" transform="translate(0.113512,0)">
					<title>Sheet.37</title>
					<path d="M74.35 159.4 C74.35 159.4 74.35 159.4 74.35 159.4 C74.35 166.46 57.66 172.15 37.23 172.15 C16.68 172.15
								 0 166.46 0 159.4 C0 152.34 16.68 146.65 37.23 146.65 C57.66 146.65 74.35 152.34 74.35 159.4 Z"
							class="st5"/>
				</g>
				<g id="shape38-77" v:mID="38" v:groupContext="shape" transform="translate(1.59872E-14,-12.4076)">
					<title>Sheet.38</title>
					<path d="M0 153.93 L0 172.15 L74.47 172.15 L74.47 153.93 L0 153.93 Z" class="st4"/>
				</g>
				<g id="shape39-79" v:mID="39" v:groupContext="shape" transform="translate(0.113512,-18.213)">
					<title>Sheet.39</title>
					<path d="M74.35 159.4 C74.35 159.4 74.35 159.4 74.35 159.4 C74.35 166.46 57.66 172.15 37.23 172.15 C16.68 172.15
								 0 166.46 0 159.4 C0 152.34 16.68 146.65 37.23 146.65 C57.66 146.65 74.35 152.34 74.35 159.4 Z"
							class="st6"/>
				</g>
				<g id="shape40-81" v:mID="40" v:groupContext="shape" transform="translate(0.113512,-18.213)">
					<title>Sheet.40</title>
					<path d="M74.35 159.4 C74.35 159.4 74.35 159.4 74.35 159.4 C74.35 166.46 57.66 172.15 37.23 172.15 C16.68 172.15
								 0 166.46 0 159.4 C0 152.34 16.68 146.65 37.23 146.65 C57.66 146.65 74.35 152.34 74.35 159.4 Z"
							class="st7"/>
				</g>
				<g id="shape41-83" v:mID="41" v:groupContext="shape" transform="translate(38.2536,-31.9866)">
					<title>Sheet.41</title>
					<path d="M0 170.33 L5.45 172.15 L18.39 167.02 L24.4 168.5 L21.23 163.84 L5.67 163.84 L12.14 165.43 L0 170.33 Z"
							class="st6"/>
				</g>
				<g id="shape42-85" v:mID="42" v:groupContext="shape" transform="translate(11.4647,-22.0832)">
					<title>Sheet.42</title>
					<path d="M24.52 165.66 L19.07 163.84 L6.13 169.08 L0 167.6 L3.29 172.15 L18.84 172.15 L12.26 170.56 L24.52 165.66
								 Z" class="st6"/>
				</g>
				<g id="shape43-87" v:mID="43" v:groupContext="shape" transform="translate(12.8269,-32.2143)">
					<title>Sheet.43</title>
					<path d="M0 165.66 L5.45 163.84 L18.39 169.08 L24.52 167.6 L21.34 172.15 L5.67 172.15 L12.26 170.56 L0 165.66
								 Z" class="st6"/>
				</g>
				<g id="shape44-89" v:mID="44" v:groupContext="shape" transform="translate(37.4589,-21.5141)">
					<title>Sheet.44</title>
					<path d="M24.4 170.33 L18.96 172.15 L6.01 167.02 L0 168.5 L3.18 163.84 L18.73 163.84 L12.26 165.43 L24.4 170.33
								 Z" class="st6"/>
				</g>
				<g id="shape45-91" v:mID="45" v:groupContext="shape" transform="translate(38.7076,-31.5312)">
					<title>Sheet.45</title>
					<path d="M0 170.33 L5.45 172.15 L18.39 167.02 L24.4 168.5 L21.23 163.84 L5.67 163.84 L12.14 165.43 L0 170.33 Z"
							class="st8"/>
				</g>
				<g id="shape46-93" v:mID="46" v:groupContext="shape" transform="translate(11.9188,-21.6279)">
					<title>Sheet.46</title>
					<path d="M24.52 165.66 L19.07 163.84 L6.13 169.08 L0 167.6 L3.29 172.15 L18.84 172.15 L12.26 170.56 L24.52 165.66
								 Z" class="st8"/>
				</g>
				<g id="shape47-95" v:mID="47" v:groupContext="shape" transform="translate(13.2809,-31.7589)">
					<title>Sheet.47</title>
					<path d="M0 165.66 L5.45 163.84 L18.39 169.08 L24.52 167.6 L21.34 172.15 L5.67 172.15 L12.26 170.56 L0 165.66
								 Z" class="st8"/>
				</g>
				<g id="shape48-97" v:mID="48" v:groupContext="shape" transform="translate(37.913,-21.0588)">
					<title>Sheet.48</title>
					<path d="M24.4 170.33 L18.96 172.15 L6.01 167.02 L0 168.5 L3.18 163.84 L18.73 163.84 L12.26 165.43 L24.4 170.33
								 Z" class="st8"/>
				</g>
				<g id="shape49-99" v:mID="49" v:groupContext="shape" transform="translate(74.4639,-12.4076)">
					<title>Sheet.49</title>
					<path d="M0 153.82 L0 172.15 L0 153.82 Z" class="st9"/>
					<path d="M0 153.82 L0 172.15" class="st10"/>
				</g>
				<g id="shape50-102" v:mID="50" v:groupContext="shape" transform="translate(0.215787,-0.154109)">
					<title>Sheet.50</title>
					<desc>SW1</desc>
					<v:userDefs/>
					<v:textBlock v:margins="rect(4,4,4,4)" v:tabSpace="42.5197"/>
					<v:textRect cx="37.46" cy="163.808" width="74.93" height="16.6799"/>
					<rect x="0" y="155.469" width="74.9201" height="16.6799" class="st1"/>
					<text x="16.05" y="167.66" class="st11" v:langID="1033"><v:paragraph v:spLine="-1.1" v:horizAlign="1"/><v:tabList/>2.2.2.2</text>				</g>
			</g>
			<g id="shape58-105" v:mID="58" v:groupContext="shape" transform="translate(-88.2001,3.00951) rotate(-46.9349)">
				<title>Sheet.58</title>
				<path d="M0 172.15 L111.5 172.15" class="st12"/>
			</g>
			<g id="shape59-108" v:mID="59" v:groupContext="shape" transform="translate(89.3092,-13.6517)">
				<title>Sheet.59</title>
				<path d="M0 172.15 L148.82 172.15" class="st12"/>
			</g>
			<g id="shape60-111" v:mID="60" v:groupContext="shape" transform="translate(337.16,-82.6281) rotate(45)">
				<title>Sheet.60</title>
				<path d="M0 172.15 L114.03 172.15" class="st12"/>
			</g>
			<g id="shape51-114" v:mID="51" v:groupContext="shape" transform="translate(78.5008,-8.16148)">
				<title>Rectangle.51</title>
				<desc>0/1</desc>
				<v:userDefs>
					<v:ud v:nameU="visVersion" v:val="VT0(15):26"/>
				</v:userDefs>
				<v:textBlock v:margins="rect(3,3,3,3)" v:tabSpace="42.5197"/>
				<v:textRect cx="10.8083" cy="166.658" width="21.62" height="10.9804"/>
				<rect x="0" y="161.168" width="21.6167" height="10.9804" rx="1.41732" ry="1.41732" class="st13"/>
				<text x="4.55" y="169.36" class="st14" v:langID="1033"><v:paragraph v:horizAlign="1"/><v:tabList/>0/1</text>			</g>
			<g id="shape52-117" v:mID="52" v:groupContext="shape" transform="translate(102.894,-127.559)">
				<title>Rectangle.52</title>
				<desc>0/0</desc>
				<v:userDefs>
					<v:ud v:nameU="visVersion" v:val="VT0(15):26"/>
				</v:userDefs>
				<v:textBlock v:margins="rect(3,3,3,3)" v:tabSpace="42.5197"/>
				<v:textRect cx="10.8083" cy="166.658" width="21.62" height="10.9804"/>
				<rect x="0" y="161.168" width="21.6167" height="10.9804" rx="1.41732" ry="1.41732" class="st13"/>
				<text x="4.55" y="169.36" class="st14" v:langID="1033"><v:paragraph v:horizAlign="1"/><v:tabList/>0/0</text>			</g>
			<g id="shape53-120" v:mID="53" v:groupContext="shape" transform="translate(204.625,-127.559)">
				<title>Rectangle.53</title>
				<desc>0/1</desc>
				<v:userDefs>
					<v:ud v:nameU="visVersion" v:val="VT0(15):26"/>
				</v:userDefs>
				<v:textBlock v:margins="rect(3,3,3,3)" v:tabSpace="42.5197"/>
				<v:textRect cx="10.8083" cy="166.658" width="21.62" height="10.9804"/>
				<rect x="0" y="161.168" width="21.6167" height="10.9804" rx="1.41732" ry="1.41732" class="st13"/>
				<text x="4.55" y="169.36" class="st14" v:langID="1033"><v:paragraph v:horizAlign="1"/><v:tabList/>0/1</text>			</g>
			<g id="shape54-123" v:mID="54" v:groupContext="shape" transform="translate(227.32,-8.16148)">
				<title>Rectangle.54</title>
				<desc>0/1</desc>
				<v:userDefs>
					<v:ud v:nameU="visVersion" v:val="VT0(15):26"/>
				</v:userDefs>
				<v:textBlock v:margins="rect(3,3,3,3)" v:tabSpace="42.5197"/>
				<v:textRect cx="10.8083" cy="166.658" width="21.62" height="10.9804"/>
				<rect x="0" y="161.168" width="21.6167" height="10.9804" rx="1.41732" ry="1.41732" class="st13"/>
				<text x="4.55" y="169.36" class="st14" v:langID="1033"><v:paragraph v:horizAlign="1"/><v:tabList/>0/1</text>			</g>
			<g id="shape55-126" v:mID="55" v:groupContext="shape" transform="translate(26.7596,-46.1009)">
				<title>Rectangle.55</title>
				<desc>0/0</desc>
				<v:userDefs>
					<v:ud v:nameU="visVersion" v:val="VT0(15):26"/>
				</v:userDefs>
				<v:textBlock v:margins="rect(3,3,3,3)" v:tabSpace="42.5197"/>
				<v:textRect cx="10.8083" cy="166.658" width="21.62" height="10.9804"/>
				<rect x="0" y="161.168" width="21.6167" height="10.9804" rx="1.41732" ry="1.41732" class="st13"/>
				<text x="4.55" y="169.36" class="st14" v:langID="1033"><v:paragraph v:horizAlign="1"/><v:tabList/>0/0</text>			</g>
			<g id="shape56-129" v:mID="56" v:groupContext="shape" transform="translate(281.878,-46.1009)">
				<title>Rectangle.56</title>
				<desc>0/0</desc>
				<v:userDefs>
					<v:ud v:nameU="visVersion" v:val="VT0(15):26"/>
				</v:userDefs>
				<v:textBlock v:margins="rect(3,3,3,3)" v:tabSpace="42.5197"/>
				<v:textRect cx="10.8083" cy="166.658" width="21.62" height="10.9804"/>
				<rect x="0" y="161.168" width="21.6167" height="10.9804" rx="1.41732" ry="1.41732" class="st13"/>
				<text x="4.55" y="169.36" class="st14" v:langID="1033"><v:paragraph v:horizAlign="1"/><v:tabList/>0/0</text>			</g>
			<g id="shape61-132" v:mID="61" v:groupContext="shape" transform="translate(25.7061,-81.4803)">
				<title>Rectangle.266</title>
				<desc>Plain Text Auth Password: Cisco</desc>
				<v:userDefs>
					<v:ud v:nameU="visVersion" v:val="VT0(15):26"/>
				</v:userDefs>
				<v:textBlock v:margins="rect(3,3,2,3)" v:tabSpace="42.5197"/>
				<v:textRect cx="37.568" cy="162.984" width="75.14" height="18.3297"/>
				<rect x="0" y="153.819" width="75.1359" height="18.3297" rx="1.41732" ry="1.41732" class="st15"/>
				<text x="10.44" y="161.48" class="st16" v:langID="1033"><v:paragraph v:spLine="-1" v:horizAlign="1"/><v:tabList/>Plain Text Auth<v:newlineChar/><tspan
							x="7.78" dy="1em" class="st3">Password: Cisco</tspan></text>			</g>
			<g id="shape64-136" v:mID="64" v:groupContext="shape" transform="translate(124.742,-4.48682)">
				<title>Rectangle.64</title>
				<desc>Plain Text Auth Password: Admin</desc>
				<v:userDefs>
					<v:ud v:nameU="visVersion" v:val="VT0(15):26"/>
				</v:userDefs>
				<v:textBlock v:margins="rect(3,3,2,3)" v:tabSpace="42.5197"/>
				<v:textRect cx="37.568" cy="162.984" width="75.14" height="18.3297"/>
				<rect x="0" y="153.819" width="75.1359" height="18.3297" rx="1.41732" ry="1.41732" class="st15"/>
				<text x="10.44" y="161.48" class="st16" v:langID="1033"><v:paragraph v:spLine="-1" v:horizAlign="1"/><v:tabList/>Plain Text Auth<v:newlineChar/><tspan
							x="6.45" dy="1em" class="st3">Password: Admin</tspan></text>			</g>
			<g id="shape65-140" v:mID="65" v:groupContext="shape" transform="translate(230.072,-81.4803)">
				<title>Rectangle.65</title>
				<desc>MD5 Auth Password: aaddd</desc>
				<v:userDefs>
					<v:ud v:nameU="visVersion" v:val="VT0(15):26"/>
				</v:userDefs>
				<v:textBlock v:margins="rect(3,3,2,3)" v:tabSpace="42.5197"/>
				<v:textRect cx="37.568" cy="162.984" width="75.14" height="18.3297"/>
				<rect x="0" y="153.819" width="75.1359" height="18.3297" rx="1.41732" ry="1.41732" class="st17"/>
				<text x="19.78" y="161.48" class="st16" v:langID="1033"><v:paragraph v:spLine="-1" v:horizAlign="1"/><v:tabList/>MD5 Auth<v:newlineChar/><tspan
							x="6.66" dy="1em" class="st3">Password: aaddd</tspan></text>			</g>
		</g>
	</g>
</svg>
