<?xml version="1.0" encoding="UTF-8" standalone="no"?>
<!DOCTYPE svg PUBLIC "-//W3C//DTD SVG 1.1//EN" "http://www.w3.org/Graphics/SVG/1.1/DTD/svg11.dtd">
<!-- Generated by Microsoft Visio, SVG Export primary-root-fails.svg Page-56 -->
<svg xmlns="http://www.w3.org/2000/svg" xmlns:xlink="http://www.w3.org/1999/xlink" xmlns:ev="http://www.w3.org/2001/xml-events"
		xmlns:v="http://schemas.microsoft.com/visio/2003/SVGExtensions/" width="4.82283in" height="2.40158in"
		viewBox="0 0 347.244 172.913" xml:space="preserve" color-interpolation-filters="sRGB" class="st31">
	<v:documentProperties v:langID="2057" v:metric="true" v:viewMarkup="false">
		<v:userDefs>
			<v:ud v:nameU="msvNoAutoConnect" v:val="VT0(1):26"/>
		</v:userDefs>
	</v:documentProperties>

	<style type="text/css">
	<![CDATA[
		.st1 {fill:none}
		.st2 {stroke:#d8d8d8;stroke-linecap:round;stroke-linejoin:round;stroke-width:0.999999}
		.st3 {stroke:#000000;stroke-linecap:round;stroke-linejoin:round;stroke-width:0.999999}
		.st4 {fill:#126d99;stroke:#ffffff;stroke-linecap:round;stroke-linejoin:round;stroke-width:0.75}
		.st5 {fill:none;stroke:#ffffff;stroke-linecap:round;stroke-linejoin:round;stroke-width:0.25}
		.st6 {fill:#1684b8;stroke:#ffffff;stroke-linecap:round;stroke-linejoin:round;stroke-width:0.5}
		.st7 {fill:#ffffff;stroke:none;stroke-linecap:round;stroke-linejoin:round;stroke-width:0.25}
		.st8 {fill:none;stroke:none;stroke-linecap:round;stroke-linejoin:round;stroke-width:0.749999}
		.st9 {fill:#f2f2f2;font-family:Arial;font-size:0.75em;font-weight:bold}
		.st10 {fill:#d8d8d8;stroke:#ffffff;stroke-linecap:round;stroke-linejoin:round;stroke-width:0.749999}
		.st11 {fill:#ffffff;stroke:none;stroke-linecap:round;stroke-linejoin:round;stroke-width:0.749999}
		.st12 {fill:#d8d8d8;stroke:none;stroke-linecap:round;stroke-linejoin:round;stroke-width:0.749999}
		.st13 {fill:#0e6f9c;stroke:#ffffff;stroke-linecap:round;stroke-linejoin:round;stroke-width:0.749999}
		.st14 {fill:#005a80;stroke:#ffffff;stroke-linecap:round;stroke-linejoin:round;stroke-width:0.749999}
		.st15 {fill:#0e6f9c;stroke:none;stroke-linecap:round;stroke-linejoin:round;stroke-width:0.749999}
		.st16 {fill:#d8d8d8;stroke:none;stroke-linecap:round;stroke-linejoin:round;stroke-width:0.24}
		.st17 {fill:#f2f2f2;font-family:Arial;font-size:0.499992em;font-weight:bold}
		.st18 {fill:#ffd965;stroke:none;stroke-linecap:round;stroke-linejoin:round;stroke-width:0.24}
		.st19 {fill:#000000;font-family:Arial;font-size:0.499992em;font-weight:bold}
		.st20 {fill:#d9958f;stroke:none;stroke-linecap:round;stroke-linejoin:round;stroke-width:0.24}
		.st21 {fill:none;stroke:none;stroke-linecap:round;stroke-linejoin:round;stroke-width:0.75}
		.st22 {fill:#d8d8d8;font-family:Arial;font-size:0.833336em}
		.st23 {font-size:1em}
		.st24 {font-size:1em;font-weight:bold}
		.st25 {fill:#000000;font-family:Arial;font-size:0.833336em}
		.st26 {fill:#000000;font-family:Arial;font-size:0.666664em}
		.st27 {fill:#c4d6a0;stroke:none;stroke-linecap:round;stroke-linejoin:round;stroke-width:0.24}
		.st28 {marker-end:url(#mrkr2-128);stroke:#000000;stroke-linecap:round;stroke-linejoin:round;stroke-width:0.75}
		.st29 {fill:#000000;fill-opacity:1;stroke:#000000;stroke-opacity:1;stroke-width:0.34246563351571}
		.st30 {fill:#c05046;stroke:none;stroke-linecap:round;stroke-linejoin:round;stroke-width:0.24}
		.st31 {fill:none;fill-rule:evenodd;font-size:12px;overflow:visible;stroke-linecap:square;stroke-miterlimit:3}
	]]>
	</style>

	<defs id="Markers">
		<g id="lend2">
			<path d="M 1 1 L 0 0 L 1 -1 L 1 1 " style="stroke:none"/>
		</g>
		<marker id="mrkr2-128" class="st29" v:arrowType="2" v:arrowSize="0" v:setback="0" refX="-0" orient="auto"
				markerUnits="strokeWidth" overflow="visible">
			<use xlink:href="#lend2" transform="scale(-2.920001022392,-2.920001022392) "/>
		</marker>
	</defs>
	<g v:mID="131" v:index="56" v:groupContext="foregroundPage">
		<title>Page-56</title>
		<v:pageProperties v:drawingScale="0.0393701" v:pageScale="0.0393701" v:drawingUnits="24" v:shadowOffsetX="9"
				v:shadowOffsetY="-9"/>
		<g id="shape1002-1" v:mID="1002" v:groupContext="shape" transform="translate(116.072,-113.618)">
			<title>Sheet.1002</title>
			<path d="M0 172.91 L65.77 172.91 L0 172.91 Z" class="st1"/>
			<path d="M0 172.91 L65.77 172.91" class="st2"/>
		</g>
		<g id="shape1003-4" v:mID="1003" v:groupContext="shape" transform="translate(267.724,71.205) rotate(90)">
			<title>Sheet.1003</title>
			<path d="M0 172.91 L62.09 172.91 L0 172.91 Z" class="st1"/>
			<path d="M0 172.91 L62.09 172.91" class="st2"/>
		</g>
		<g id="shape1004-7" v:mID="1004" v:groupContext="shape" transform="translate(292.013,211.444) rotate(144.199)">
			<title>Sheet.1004</title>
			<path d="M0 172.91 L107.36 172.91 L0 172.91 Z" class="st1"/>
			<path d="M0 172.91 L107.36 172.91" class="st3"/>
		</g>
		<g id="group1005-10" transform="translate(56.6929,-13.9672)" v:mID="1005" v:groupContext="group">
			<title>Sheet.1005</title>
			<g id="group1006-11" transform="translate(0.502872,-0.521049)" v:mID="1006" v:groupContext="group">
				<title>SW-SVG.28</title>
				<g id="shape1007-12" v:mID="1007" v:groupContext="shape">
					<title>Sheet.1007</title>
					<path d="M0 161.58 L0 172.91 L45.16 172.91 L45.16 161.58 L0 161.58 Z" class="st4"/>
				</g>
				<g id="shape1008-14" v:mID="1008" v:groupContext="shape">
					<title>Sheet.1008</title>
					<path d="M0 161.58 L0 172.91 L45.16 172.91 L45.16 161.58 L0 161.58 Z" class="st5"/>
				</g>
				<g id="shape1009-16" v:mID="1009" v:groupContext="shape" transform="translate(45.1557,8.52651E-14)">
					<title>Sheet.1009</title>
					<path d="M0 161.58 L13.72 147.77 L13.72 159.11 L0 172.91 L0 161.58 Z" class="st4"/>
				</g>
				<g id="shape1010-18" v:mID="1010" v:groupContext="shape" transform="translate(2.03837E-13,-11.3316)">
					<title>Sheet.1010</title>
					<path d="M45.16 172.91 L58.88 159.11 L13.72 159.11 L0 172.91 L45.16 172.91 Z" class="st6"/>
				</g>
				<g id="shape1011-20" v:mID="1011" v:groupContext="shape" transform="translate(26.7248,-14.113)">
					<title>Sheet.1011</title>
					<path d="M1.64 169.3 L0 170.95 L11.77 170.95 L9.73 172.91 L19.25 170.23 L14.23 168.27 L13.21 169.3 L1.64 169.3
								 Z" class="st7"/>
				</g>
				<g id="shape1012-22" v:mID="1012" v:groupContext="shape" transform="translate(32.3565,-19.7789)">
					<title>Sheet.1012</title>
					<path d="M1.64 169.3 L0 170.95 L11.77 170.95 L9.73 172.91 L19.25 170.23 L14.23 168.27 L13.21 169.3 L1.64 169.3
								 Z" class="st7"/>
				</g>
				<g id="shape1013-24" v:mID="1013" v:groupContext="shape" transform="translate(6.55324,-12.4648)">
					<title>Sheet.1013</title>
					<path d="M17.61 171.88 L19.25 170.23 L7.58 170.23 L9.53 168.27 L0 170.95 L5.02 172.91 L6.14 171.88 L17.61 171.88
								 Z" class="st7"/>
				</g>
				<g id="shape1014-26" v:mID="1014" v:groupContext="shape" transform="translate(12.1849,-18.1307)">
					<title>Sheet.1014</title>
					<path d="M17.61 171.88 L19.25 170.23 L7.58 170.23 L9.53 168.27 L0 170.95 L5.02 172.91 L6.14 171.88 L17.61 171.88
								 Z" class="st7"/>
				</g>
			</g>
			<g id="shape1018-28" v:mID="1018" v:groupContext="shape">
				<title>Sheet.1018</title>
				<desc>SW1</desc>
				<v:userDefs/>
				<v:textBlock v:margins="rect(4,4,4,4)" v:tabSpace="42.5197"/>
				<v:textRect cx="22.7921" cy="166.866" width="45.59" height="12.0969"/>
				<rect x="0" y="160.817" width="45.5848" height="12.0969" class="st8"/>
				<text x="10.54" y="169.57" class="st9" v:langID="1026"><v:paragraph v:horizAlign="1"/><v:tabList/>ACC1</text>			</g>
		</g>
		<g id="group1019-31" transform="translate(75.5459,-101.705)" v:mID="1019" v:groupContext="group">
			<title>Distr.Switch</title>
			<g id="shape1020-32" v:mID="1020" v:groupContext="shape">
				<title>Sheet.1020</title>
				<path d="M0 137.46 L0 172.91 L35.96 172.91 L35.96 137.46 L0 137.46 Z" class="st10"/>
			</g>
			<g id="shape1021-34" v:mID="1021" v:groupContext="shape" transform="translate(-2.15827E-13,-35.4466)">
				<title>Sheet.1021</title>
				<path d="M0 172.91 L4.57 168.65 L40.53 168.65 L35.96 172.91 L0 172.91 Z" class="st10"/>
			</g>
			<g id="shape1022-36" v:mID="1022" v:groupContext="shape" transform="translate(35.9528,-0.0507234)">
				<title>Sheet.1022</title>
				<path d="M0 137.51 L4.57 133.25 L4.57 168.65 L0 172.91 L0 137.51 Z" class="st10"/>
			</g>
			<g id="shape1023-38" v:mID="1023" v:groupContext="shape" transform="translate(1.63422,-15.1267)">
				<title>Sheet.1023</title>
				<path d="M12.42 168.65 L2.94 168.65 L2.94 167.34 L0 169.96 L2.94 172.91 L2.94 171.6 L12.42 171.6 L12.42 168.65 Z"
						class="st11"/>
			</g>
			<g id="shape1024-40" v:mID="1024" v:groupContext="shape" transform="translate(6.21003,-19.3874)">
				<title>Sheet.1024</title>
				<path d="M9.8 170.94 L2.94 164.06 L3.92 163.08 L0 163.08 L0 167.01 L0.98 166.02 L7.84 172.91 L9.8 170.94 Z"
						class="st11"/>
			</g>
			<g id="shape1025-42" v:mID="1025" v:groupContext="shape" transform="translate(14.7079,-21.3538)">
				<title>Sheet.1025</title>
				<path d="M4.24 172.91 L4.24 163.08 L5.56 163.08 L2.94 160.46 L0 163.08 L1.31 163.08 L1.31 172.91 L4.24 172.91 Z"
						class="st11"/>
			</g>
			<g id="shape1026-44" v:mID="1026" v:groupContext="shape" transform="translate(18.9569,-19.3874)">
				<title>Sheet.1026</title>
				<path d="M1.96 172.91 L8.83 166.02 L9.8 167.01 L9.8 163.08 L5.89 163.08 L6.86 164.06 L0 170.94 L1.96 172.91 Z"
						class="st11"/>
			</g>
			<g id="shape1027-46" v:mID="1027" v:groupContext="shape" transform="translate(20.918,-15.1267)">
				<title>Sheet.1027</title>
				<path d="M0 171.6 L9.8 171.6 L9.8 172.91 L12.42 169.96 L9.8 167.34 L9.8 168.65 L0 168.65 L0 171.6 Z" class="st11"/>
			</g>
			<g id="shape1028-48" v:mID="1028" v:groupContext="shape" transform="translate(18.9569,-6.60551)">
				<title>Sheet.1028</title>
				<path d="M0 165.05 L6.86 171.93 L5.89 172.91 L9.8 172.58 L9.8 168.97 L8.83 169.96 L1.96 163.08 L0 165.05 Z"
						class="st11"/>
			</g>
			<g id="shape1029-50" v:mID="1029" v:groupContext="shape" transform="translate(14.7079,-2.01716)">
				<title>Sheet.1029</title>
				<path d="M1.31 160.46 L1.31 170.29 L0 170.29 L2.94 172.91 L5.56 170.29 L4.24 170.29 L4.24 160.46 L1.31 160.46 Z"
						class="st11"/>
			</g>
			<g id="shape1030-52" v:mID="1030" v:groupContext="shape" transform="translate(6.21003,-6.60551)">
				<title>Sheet.1030</title>
				<path d="M7.84 163.08 L0.98 169.96 L0 168.97 L0 172.91 L3.92 172.91 L2.94 171.93 L9.8 165.05 L7.84 163.08 Z"
						class="st11"/>
			</g>
			<g id="shape1031-54" v:mID="1031" v:groupContext="shape" transform="translate(12.0932,-12.1774)">
				<title>Sheet.1031</title>
				<ellipse cx="5.39292" cy="167.506" rx="5.39292" ry="5.40771" class="st12"/>
			</g>
		</g>
		<g id="group1032-56" transform="translate(181.845,-101.705)" v:mID="1032" v:groupContext="group">
			<title>Distr.Switch.14</title>
			<g id="shape1033-57" v:mID="1033" v:groupContext="shape">
				<title>Sheet.1033</title>
				<path d="M0 137.46 L0 172.91 L35.96 172.91 L35.96 137.46 L0 137.46 Z" class="st13"/>
			</g>
			<g id="shape1034-59" v:mID="1034" v:groupContext="shape" transform="translate(-2.15827E-13,-35.4466)">
				<title>Sheet.1034</title>
				<path d="M0 172.91 L4.57 168.65 L40.53 168.65 L35.96 172.91 L0 172.91 Z" class="st13"/>
			</g>
			<g id="shape1035-61" v:mID="1035" v:groupContext="shape" transform="translate(35.9528,-0.0507234)">
				<title>Sheet.1035</title>
				<path d="M0 137.51 L4.57 133.25 L4.57 168.65 L0 172.91 L0 137.51 Z" class="st14"/>
			</g>
			<g id="shape1036-63" v:mID="1036" v:groupContext="shape" transform="translate(1.63422,-15.1267)">
				<title>Sheet.1036</title>
				<path d="M12.42 168.65 L2.94 168.65 L2.94 167.34 L0 169.96 L2.94 172.91 L2.94 171.6 L12.42 171.6 L12.42 168.65 Z"
						class="st11"/>
			</g>
			<g id="shape1037-65" v:mID="1037" v:groupContext="shape" transform="translate(6.21003,-19.3874)">
				<title>Sheet.1037</title>
				<path d="M9.8 170.94 L2.94 164.06 L3.92 163.08 L0 163.08 L0 167.01 L0.98 166.02 L7.84 172.91 L9.8 170.94 Z"
						class="st11"/>
			</g>
			<g id="shape1038-67" v:mID="1038" v:groupContext="shape" transform="translate(14.7079,-21.3538)">
				<title>Sheet.1038</title>
				<path d="M4.24 172.91 L4.24 163.08 L5.56 163.08 L2.94 160.46 L0 163.08 L1.31 163.08 L1.31 172.91 L4.24 172.91 Z"
						class="st11"/>
			</g>
			<g id="shape1039-69" v:mID="1039" v:groupContext="shape" transform="translate(18.9569,-19.3874)">
				<title>Sheet.1039</title>
				<path d="M1.96 172.91 L8.83 166.02 L9.8 167.01 L9.8 163.08 L5.89 163.08 L6.86 164.06 L0 170.94 L1.96 172.91 Z"
						class="st11"/>
			</g>
			<g id="shape1040-71" v:mID="1040" v:groupContext="shape" transform="translate(20.918,-15.1267)">
				<title>Sheet.1040</title>
				<path d="M0 171.6 L9.8 171.6 L9.8 172.91 L12.42 169.96 L9.8 167.34 L9.8 168.65 L0 168.65 L0 171.6 Z" class="st11"/>
			</g>
			<g id="shape1041-73" v:mID="1041" v:groupContext="shape" transform="translate(18.9569,-6.60551)">
				<title>Sheet.1041</title>
				<path d="M0 165.05 L6.86 171.93 L5.89 172.91 L9.8 172.58 L9.8 168.97 L8.83 169.96 L1.96 163.08 L0 165.05 Z"
						class="st11"/>
			</g>
			<g id="shape1042-75" v:mID="1042" v:groupContext="shape" transform="translate(14.7079,-2.01716)">
				<title>Sheet.1042</title>
				<path d="M1.31 160.46 L1.31 170.29 L0 170.29 L2.94 172.91 L5.56 170.29 L4.24 170.29 L4.24 160.46 L1.31 160.46 Z"
						class="st11"/>
			</g>
			<g id="shape1043-77" v:mID="1043" v:groupContext="shape" transform="translate(6.21003,-6.60551)">
				<title>Sheet.1043</title>
				<path d="M7.84 163.08 L0.98 169.96 L0 168.97 L0 172.91 L3.92 172.91 L2.94 171.93 L9.8 165.05 L7.84 163.08 Z"
						class="st11"/>
			</g>
			<g id="shape1044-79" v:mID="1044" v:groupContext="shape" transform="translate(12.0932,-12.1774)">
				<title>Sheet.1044</title>
				<ellipse cx="5.39292" cy="167.506" rx="5.39292" ry="5.40771" class="st15"/>
			</g>
		</g>
		<g id="shape1045-81" v:mID="1045" v:groupContext="shape" transform="translate(87.8324,-89.9491)">
			<title>Rectangle</title>
			<desc>DP</desc>
			<v:userDefs>
				<v:ud v:nameU="visVersion" v:val="VT0(15):26"/>
			</v:userDefs>
			<v:textBlock v:margins="rect(0,0,0,0)" v:tabSpace="42.5197"/>
			<v:textRect cx="7.08655" cy="168.661" width="14.18" height="8.50394"/>
			<rect x="0" y="164.409" width="14.1732" height="8.50394" class="st16"/>
			<text x="2.92" y="170.46" class="st17" v:langID="1026"><v:paragraph v:horizAlign="1"/><v:tabList/>DP</text>		</g>
		<g id="shape1046-84" v:mID="1046" v:groupContext="shape" transform="translate(118.138,-109.37)">
			<title>Rectangle.130</title>
			<desc>DP</desc>
			<v:userDefs>
				<v:ud v:nameU="visVersion" v:val="VT0(15):26"/>
			</v:userDefs>
			<v:textBlock v:margins="rect(0,0,0,0)" v:tabSpace="42.5197"/>
			<v:textRect cx="7.08655" cy="168.661" width="14.18" height="8.50394"/>
			<rect x="0" y="164.409" width="14.1732" height="8.50394" class="st16"/>
			<text x="2.92" y="170.46" class="st17" v:langID="1026"><v:paragraph v:horizAlign="1"/><v:tabList/>DP</text>		</g>
		<g id="shape1047-87" v:mID="1047" v:groupContext="shape" transform="translate(164.907,-109.37)">
			<title>Rectangle.131</title>
			<desc>RP</desc>
			<v:userDefs>
				<v:ud v:nameU="visVersion" v:val="VT0(15):26"/>
			</v:userDefs>
			<v:textBlock v:margins="rect(0,0,0,0)" v:tabSpace="42.5197"/>
			<v:textRect cx="7.08655" cy="168.661" width="14.18" height="8.50394"/>
			<rect x="0" y="164.409" width="14.1732" height="8.50394" class="st16"/>
			<text x="2.92" y="170.46" class="st17" v:langID="1026"><v:paragraph v:horizAlign="1"/><v:tabList/>RP</text>		</g>
		<g id="shape1048-90" v:mID="1048" v:groupContext="shape" transform="translate(175.275,-91.3664)">
			<title>Rectangle.132</title>
			<desc>DP</desc>
			<v:userDefs>
				<v:ud v:nameU="visVersion" v:val="VT0(15):26"/>
			</v:userDefs>
			<v:textBlock v:margins="rect(0,0,0,0)" v:tabSpace="42.5197"/>
			<v:textRect cx="7.08655" cy="168.661" width="14.18" height="8.50394"/>
			<rect x="0" y="164.409" width="14.1732" height="8.50394" class="st18"/>
			<text x="2.92" y="170.46" class="st19" v:langID="1026"><v:paragraph v:horizAlign="1"/><v:tabList/>DP</text>		</g>
		<g id="shape1049-93" v:mID="1049" v:groupContext="shape" transform="translate(87.8324,-43.1272)">
			<title>Rectangle.133</title>
			<desc>RP</desc>
			<v:userDefs>
				<v:ud v:nameU="visVersion" v:val="VT0(15):26"/>
			</v:userDefs>
			<v:textBlock v:margins="rect(0,0,0,0)" v:tabSpace="42.5197"/>
			<v:textRect cx="7.08655" cy="168.661" width="14.18" height="8.50394"/>
			<rect x="0" y="164.409" width="14.1732" height="8.50394" class="st16"/>
			<text x="2.92" y="170.46" class="st17" v:langID="1026"><v:paragraph v:horizAlign="1"/><v:tabList/>RP</text>		</g>
		<g id="shape1050-96" v:mID="1050" v:groupContext="shape" transform="translate(108.047,-43.1272)">
			<title>Rectangle.134</title>
			<desc>Alt</desc>
			<v:userDefs>
				<v:ud v:nameU="visVersion" v:val="VT0(15):26"/>
			</v:userDefs>
			<v:textBlock v:margins="rect(0,0,0,0)" v:tabSpace="42.5197"/>
			<v:textRect cx="7.08655" cy="168.661" width="14.18" height="8.50394"/>
			<rect x="0" y="164.409" width="14.1732" height="8.50394" class="st20"/>
			<text x="3.09" y="170.46" class="st19" v:langID="1026"><v:paragraph v:horizAlign="1"/><v:tabList/>Alt</text>		</g>
		<g id="shape1051-99" v:mID="1051" v:groupContext="shape" transform="translate(62.1424,-140.263)">
			<title>Sheet.1051</title>
			<desc>ROOT (Primary)</desc>
			<v:userDefs/>
			<v:textBlock v:margins="rect(4,4,4,4)" v:tabSpace="42.5197"/>
			<v:textRect cx="34.9835" cy="160.866" width="69.97" height="24.0945"/>
			<rect x="0" y="148.819" width="69.9673" height="24.0945" class="st21"/>
			<text x="20.54" y="158.37" class="st22" v:langID="1026"><v:paragraph v:spLine="-1" v:horizAlign="1"/><v:tabList/>ROOT<v:newlineChar/><tspan
						x="13.03" dy="1em" class="st23">(</tspan><tspan class="st24">Primary</tspan>)</text>		</g>
		<g id="shape1052-104" v:mID="1052" v:groupContext="shape" transform="translate(168.442,-140.263)">
			<title>Sheet.1052</title>
			<desc>ROOT (Secondary)</desc>
			<v:userDefs/>
			<v:textBlock v:margins="rect(4,4,4,4)" v:tabSpace="42.5197"/>
			<v:textRect cx="34.9835" cy="160.866" width="69.97" height="24.0945"/>
			<rect x="0" y="148.819" width="69.9673" height="24.0945" class="st21"/>
			<text x="20.54" y="158.37" class="st25" v:langID="1026"><v:paragraph v:spLine="-1" v:horizAlign="1"/><v:tabList/>ROOT<v:newlineChar/><tspan
						x="6.09" dy="1em" class="st23">(</tspan><tspan class="st24">Secondary</tspan>)</text>		</g>
		<g id="shape1056-109" v:mID="1056" v:groupContext="shape" transform="translate(225.139,-108.73)">
			<title>Sheet.1056</title>
			<desc>DS2 still sends BPDUs every 2 sec.</desc>
			<v:userDefs/>
			<v:textBlock v:margins="rect(4,4,4,4)" v:tabSpace="42.5197"/>
			<v:textRect cx="40.4566" cy="160.083" width="80.92" height="25.6601"/>
			<rect x="0" y="147.253" width="80.9134" height="25.6601" class="st21"/>
			<text x="4" y="150.08" class="st26" v:langID="1033"><v:paragraph v:spLine="-1"/><v:tabList/>Primary Root Bridge <tspan
						x="4" dy="1em" class="st23">has failed and </tspan><tspan x="4" dy="1em" class="st23">DSW2 has taken </tspan><tspan
						x="4" dy="1em" class="st23">over as root.</tspan></text>		</g>
		<g id="shape1057-115" v:mID="1057" v:groupContext="shape" transform="translate(141.264,-31.9668)">
			<title>Sheet.1057</title>
			<desc>However, ACC1 does not receive the BPDUs since the link is un...</desc>
			<v:userDefs/>
			<v:textBlock v:margins="rect(4,4,4,4)" v:tabSpace="42.5197"/>
			<v:textRect cx="40.4565" cy="157.501" width="80.92" height="30.8247"/>
			<rect x="0" y="142.089" width="80.9134" height="30.8247" class="st21"/>
			<text x="4" y="151.5" class="st26" v:langID="1033"><v:paragraph v:spLine="-1"/><v:tabList/>The Alternate port <tspan
						x="4" dy="1em" class="st23">becomes the new </tspan><tspan x="4" dy="1em" class="st23">Root port.</tspan></text>		</g>
		<g id="shape1058-120" v:mID="1058" v:groupContext="shape" transform="translate(127.087,-43.1272)">
			<title>Rectangle.141</title>
			<desc>DP</desc>
			<v:userDefs>
				<v:ud v:nameU="visVersion" v:val="VT0(15):26"/>
			</v:userDefs>
			<v:textBlock v:margins="rect(0,0,0,0)" v:tabSpace="42.5197"/>
			<v:textRect cx="7.08655" cy="168.661" width="14.18" height="8.50394"/>
			<rect x="0" y="164.409" width="14.1732" height="8.50394" class="st27"/>
			<text x="2.92" y="170.46" class="st19" v:langID="1033"><v:paragraph v:horizAlign="1"/><v:tabList/>RP</text>		</g>
		<g id="shape1059-123" v:mID="1059" v:groupContext="shape" transform="translate(122.221,-47.3751)">
			<title>Sheet.1059</title>
			<path d="M0 172.91 L2.68 172.91 L4.87 172.91" class="st28"/>
		</g>
		<g id="shape1060-129" v:mID="1060" v:groupContext="shape" transform="translate(79.4737,-104.934)">
			<title>No Symbol.1060</title>
			<v:userDefs>
				<v:ud v:nameU="MaxThicknessPercent" v:prompt="" v:val="VT0(0.6000600060006):26"/>
				<v:ud v:nameU="visVersion" v:prompt="" v:val="VT0(15):26"/>
			</v:userDefs>
			<path d="M28.24 158.79 A14.1214 14.1214 -180 1 0 0 158.79 A14.1214 14.1214 -180 1 0 28.24 158.79 ZM6.68 155.76 A7.85329
						 7.85329 -180 0 0 17.16 166.24 L6.68 155.76 ZM21.57 161.83 A7.85329 7.85329 -180 0 0 11.09 151.35 L21.57
						 161.83 Z" class="st30"/>
		</g>
	</g>
</svg>
