<?xml version="1.0" encoding="UTF-8" standalone="no"?>
<!DOCTYPE svg PUBLIC "-//W3C//DTD SVG 1.1//EN" "http://www.w3.org/Graphics/SVG/1.1/DTD/svg11.dtd">
<!-- Generated by Microsoft Visio, SVG Export what-is-a-network-load-balancer.svg Page-1 -->
<svg xmlns="http://www.w3.org/2000/svg" xmlns:xlink="http://www.w3.org/1999/xlink" xmlns:ev="http://www.w3.org/2001/xml-events"
		xmlns:v="http://schemas.microsoft.com/visio/2003/SVGExtensions/" width="7.74187in" height="3.42853in"
		viewBox="0 0 557.415 246.854" xml:space="preserve" color-interpolation-filters="sRGB" class="st40">
	<v:documentProperties v:langID="1026" v:metric="true" v:viewMarkup="false"/>

	<style type="text/css">
	<![CDATA[
		.st1 {fill:#d8d8d8;stroke:none;stroke-linecap:round;stroke-linejoin:round;stroke-width:0.24}
		.st2 {fill:#000000;font-family:Arial;font-size:1.16666em;font-weight:bold}
		.st3 {font-size:1em}
		.st4 {fill:none;stroke:none;stroke-linecap:round;stroke-linejoin:round;stroke-width:0.75}
		.st5 {fill:#000000;font-family:Arial;font-size:0.916672em}
		.st6 {fill:#ffd965;stroke:none;stroke-linecap:round;stroke-linejoin:round;stroke-width:0.24}
		.st7 {fill:#f2f2f2}
		.st8 {stroke:#ffffff;stroke-linecap:round;stroke-linejoin:round;stroke-width:1.5}
		.st9 {fill:#789440;fill-opacity:0.4;stroke:none;stroke-linecap:butt;stroke-width:25}
		.st10 {fill:#292d32;stroke:none;stroke-linecap:butt;stroke-width:25}
		.st11 {fill:#7f7f7f;stroke:#ffffff;stroke-linecap:round;stroke-linejoin:round;stroke-width:0.749999}
		.st12 {fill:none}
		.st13 {stroke:#ffffff;stroke-linecap:round;stroke-linejoin:round;stroke-width:0.749999}
		.st14 {fill:none;stroke:#ffffff;stroke-linecap:round;stroke-linejoin:round;stroke-width:0.749999}
		.st15 {fill:#000000;font-family:Arial;font-size:1.00001em}
		.st16 {marker-end:url(#mrkr4-98);stroke:#000000;stroke-linecap:round;stroke-linejoin:round;stroke-width:1.5}
		.st17 {fill:#000000;fill-opacity:1;stroke:#000000;stroke-opacity:1;stroke-width:0.37313432835821}
		.st18 {marker-end:url(#mrkr4-113);stroke:#00b050;stroke-linecap:round;stroke-linejoin:round;stroke-width:4}
		.st19 {fill:#00b050;fill-opacity:1;stroke:#00b050;stroke-opacity:1;stroke-width:0.73529411764706}
		.st20 {fill:#f2f2f2;stroke:none;stroke-linecap:round;stroke-linejoin:round;stroke-width:0.24}
		.st21 {fill:#000000;font-family:Arial;font-size:0.833336em}
		.st22 {fill:#7f7f7f;font-family:Arial;font-size:0.916672em}
		.st23 {fill:#126d99;stroke:none;stroke-linecap:round;stroke-linejoin:round;stroke-width:0.24}
		.st24 {fill:#ffffff;font-family:Arial;font-size:0.833336em;font-weight:bold}
		.st25 {stroke:#000000;stroke-linecap:round;stroke-linejoin:round;stroke-width:1}
		.st26 {fill:#0e6f9c;stroke:#ffffff;stroke-linecap:round;stroke-linejoin:round;stroke-width:0.749999}
		.st27 {fill:#2f698c;stroke:#ffffff;stroke-linecap:round;stroke-linejoin:round;stroke-width:0.749999}
		.st28 {fill:#046897;stroke:#ffffff;stroke-linecap:round;stroke-linejoin:round;stroke-width:1.25}
		.st29 {fill:#ffffff;stroke:none;stroke-linecap:round;stroke-linejoin:round;stroke-width:1.25}
		.st30 {fill:none;stroke:#ffffff;stroke-linecap:round;stroke-linejoin:round;stroke-width:1}
		.st31 {fill:#0e6f9c;stroke:none;stroke-linecap:round;stroke-linejoin:round;stroke-width:1}
		.st32 {fill:#126d99;stroke:none;stroke-linecap:round;stroke-linejoin:round;stroke-width:1}
		.st33 {stroke:#ffffff;stroke-linecap:round;stroke-linejoin:round;stroke-width:1}
		.st34 {fill:#ffffff;stroke:none;stroke-linecap:round;stroke-linejoin:round;stroke-width:1}
		.st35 {fill:#ffffff;stroke:#000000;stroke-linecap:round;stroke-linejoin:round;stroke-width:1}
		.st36 {fill:#000000;font-family:Arial;font-size:0.833336em;font-weight:bold}
		.st37 {marker-end:url(#mrkr4-293);stroke:#00b050;stroke-linecap:round;stroke-linejoin:round;stroke-width:2}
		.st38 {fill:#00b050;fill-opacity:1;stroke:#00b050;stroke-opacity:1;stroke-width:0.44247787610619}
		.st39 {font-size:1em;font-weight:bold}
		.st40 {fill:none;fill-rule:evenodd;font-size:12px;overflow:visible;stroke-linecap:square;stroke-miterlimit:3}
	]]>
	</style>

	<defs id="Markers">
		<g id="lend4">
			<path d="M 2 1 L 0 0 L 2 -1 L 2 1 " style="stroke:none"/>
		</g>
		<marker id="mrkr4-98" class="st17" v:arrowType="4" v:arrowSize="2" v:setback="5.36" refX="-5.36" orient="auto"
				markerUnits="strokeWidth" overflow="visible">
			<use xlink:href="#lend4" transform="scale(-2.68,-2.68) "/>
		</marker>
		<marker id="mrkr4-113" class="st19" v:arrowType="4" v:arrowSize="0" v:setback="2.72" refX="-2.72" orient="auto"
				markerUnits="strokeWidth" overflow="visible">
			<use xlink:href="#lend4" transform="scale(-1.36,-1.36) "/>
		</marker>
		<marker id="mrkr4-293" class="st38" v:arrowType="4" v:arrowSize="2" v:setback="4.52" refX="-4.52" orient="auto"
				markerUnits="strokeWidth" overflow="visible">
			<use xlink:href="#lend4" transform="scale(-2.26,-2.26) "/>
		</marker>
	</defs>
	<g v:mID="0" v:index="1" v:groupContext="foregroundPage">
		<title>Page-1</title>
		<v:pageProperties v:drawingScale="0.0393701" v:pageScale="0.0393701" v:drawingUnits="24" v:shadowOffsetX="9"
				v:shadowOffsetY="-9"/>
		<g id="group470-1" transform="translate(0.12,-0.12)" v:mID="470" v:groupContext="group">
			<title>Sheet.470</title>
			<g id="shape3-2" v:mID="3" v:groupContext="shape" transform="translate(318.145,0)">
				<title>Rectangle</title>
				<desc>Organization Internal Network</desc>
				<v:userDefs>
					<v:ud v:nameU="visVersion" v:val="VT0(15):26"/>
				</v:userDefs>
				<v:textBlock v:margins="rect(6,6,4,4)" v:tabSpace="42.5197" v:verticalAlign="0"/>
				<v:textRect cx="119.387" cy="123.547" width="238.78" height="246.614"/>
				<rect x="0" y="0.239998" width="238.775" height="246.614" rx="5.66929" ry="5.66929" class="st1"/>
				<text x="75.61" y="18.84" class="st2" v:langID="1033"><v:paragraph v:horizAlign="1"/><v:tabList/>Organization<v:newlineChar/><tspan
							x="63.54" dy="1.2em" class="st3">Internal Network</tspan></text>			</g>
			<g id="shape121-6" v:mID="121" v:groupContext="shape" transform="translate(301.137,-117.086)">
				<title>Sheet.121</title>
				<desc>Router</desc>
				<v:textBlock v:margins="rect(4,4,4,4)" v:tabSpace="42.5197"/>
				<v:textRect cx="36.4793" cy="239.402" width="72.96" height="14.9038"/>
				<rect x="0" y="231.95" width="72.9585" height="14.9038" class="st4"/>
				<text x="19.97" y="242.15" class="st5" v:langID="1033"><v:paragraph v:spLine="-1" v:horizAlign="1"/><v:tabList/>Router</text>			</g>
			<g id="shape1-9" v:mID="1" v:groupContext="shape">
				<title>Rectangle.495</title>
				<desc>Internet</desc>
				<v:userDefs>
					<v:ud v:nameU="visVersion" v:val="VT0(15):26"/>
				</v:userDefs>
				<v:textBlock v:margins="rect(6,4,4,6)" v:tabSpace="42.5197" v:verticalAlign="0"/>
				<v:textRect cx="109.466" cy="123.547" width="218.94" height="246.614"/>
				<rect x="0" y="0.239998" width="218.932" height="246.614" rx="5.66929" ry="5.66929" class="st1"/>
				<text x="84.8" y="18.84" class="st2" v:langID="1033"><v:paragraph v:horizAlign="1"/><v:tabList/>Internet</text>			</g>
			<g id="shape373-12" v:mID="373" v:groupContext="shape" transform="translate(107.058,-149.48)">
				<title>Rectangle.373</title>
				<v:userDefs>
					<v:ud v:nameU="visVersion" v:val="VT0(15):26"/>
				</v:userDefs>
				<rect x="0" y="234.098" width="47.811" height="12.7559" rx="1" ry="1" class="st6"/>
			</g>
			<g id="group343-14" transform="translate(12.0033,-24.4448)" v:mID="343" v:groupContext="group">
				<title>Sheet.343</title>
				<g id="shape2-15" v:mID="2" v:groupContext="shape">
					<title>Cloud</title>
					<v:userDefs>
						<v:ud v:nameU="visVersion" v:prompt="" v:val="VT0(15):26"/>
					</v:userDefs>
					<path d="M6.32 197.69 A10.1504 15.9599 0 0 1 11.2 167.03 A20.5839 32.3648 0 0 1 41.07 141.16 A23.636 37.1637
								 0 0 1 66.66 135.4 A14.8219 23.305 0 0 1 88.6 133.48 A16.875 26.5332 0 0 1 115.42 143.07 A12.0661
								 18.9713 0 0 1 125.17 169.9 A14.9454 23.4984 0 0 1 112.98 208.23 A18.8549 29.6451 0 0 1 86.17 227.39
								 A22.2315 34.9542 0 0 1 49.6 235.07 A28.1813 44.3089 0 0 1 17.9 227.39 A11.1181 17.4814 0 0 1 6.32
								 197.69 Z" class="st7"/>
					<path d="M6.32 197.69 A10.1504 15.9599 0 0 1 11.2 167.03 A20.5839 32.3648 0 0 1 41.07 141.16 A23.636 37.1637
								 0 0 1 66.66 135.4 A14.8219 23.305 0 0 1 88.6 133.48 A16.875 26.5332 0 0 1 115.42 143.07 A12.0661
								 18.9713 0 0 1 125.17 169.9 A14.9454 23.4984 0 0 1 112.98 208.23 A18.8549 29.6451 0 0 1 86.17 227.39
								 A22.2315 34.9542 0 0 1 49.6 235.07 A28.1813 44.3089 0 0 1 17.9 227.39 A11.1181 17.4814 0 0 1 6.32
								 197.69" class="st8"/>
					<path d="M13.02 198.65 A10.1224 15.9158 0 0 1 6.32 197.69" class="st8"/>
					<path d="M47.76 230.28 A10.1664 15.985 -180 0 0 49.6 235.07" class="st8"/>
					<path d="M87.08 221.65 A8.2068 12.9038 0 0 1 86.17 227.39" class="st8"/>
					<path d="M105.67 192.9 A8.61159 13.5403 0 0 1 112.98 208.23" class="st8"/>
					<path d="M121.52 175.66 A7.86199 12.3617 -180 0 0 125.17 169.9" class="st8"/>
					<path d="M44.72 144.99 A12.1239 19.0622 -180 0 0 41.07 141.16" class="st8"/>
				</g>
				<g id="group296-24" transform="translate(72.7704,-83.3477)" v:mID="296" v:groupContext="group">
					<title>Sheet.296</title>
					<g id="shape297-25" v:mID="297" v:groupContext="shape">
						<title>Sheet.297</title>
						<path d="M23.79 229.97 L23.79 239.94 C23.79 243.29 22.26 245.58 19.56 246.45 C18.77 246.72 17.87 246.85 16.88
									 246.85 L6.91 246.85 C5.92 246.85 5.02 246.72 4.24 246.45 C1.53 245.58 0 243.29 0 239.94 L0 229.97
									 C0 225.64 2.58 223.06 6.91 223.06 L16.88 223.06 C21.21 223.06 23.79 225.64 23.79 229.97 Z"
								class="st9"/>
					</g>
					<g id="shape298-27" v:mID="298" v:groupContext="shape" transform="translate(4.23576,0)">
						<title>Sheet.298</title>
						<path d="M15.32 246.45 C14.54 246.72 13.63 246.85 12.65 246.85 L2.68 246.85 C1.69 246.85 0.79 246.72 0 246.45
									 C0.42 243.31 3.7 240.87 7.66 240.87 C11.62 240.87 14.91 243.31 15.32 246.45 Z" class="st10"/>
					</g>
					<g id="shape299-29" v:mID="299" v:groupContext="shape" transform="translate(7.63737,-8.12522)">
						<title>Sheet.299</title>
						<path d="M8.52 242.58 C8.52 244.94 6.61 246.85 4.26 246.85 C1.9 246.85 0 244.94 0 242.58 C0 240.23 1.9 238.32
									 4.26 238.32 C6.61 238.32 8.52 240.23 8.52 242.58 Z" class="st10"/>
					</g>
				</g>
				<g id="group304-31" transform="translate(25.185,-69.0985)" v:mID="304" v:groupContext="group">
					<title>Sheet.304</title>
					<g id="shape305-32" v:mID="305" v:groupContext="shape">
						<title>Sheet.305</title>
						<path d="M23.79 229.97 L23.79 239.94 C23.79 243.29 22.26 245.58 19.56 246.45 C18.77 246.72 17.87 246.85 16.88
									 246.85 L6.91 246.85 C5.92 246.85 5.02 246.72 4.24 246.45 C1.53 245.58 0 243.29 0 239.94 L0 229.97
									 C0 225.64 2.58 223.06 6.91 223.06 L16.88 223.06 C21.21 223.06 23.79 225.64 23.79 229.97 Z"
								class="st9"/>
					</g>
					<g id="shape306-34" v:mID="306" v:groupContext="shape" transform="translate(4.23576,0)">
						<title>Sheet.306</title>
						<path d="M15.32 246.45 C14.54 246.72 13.63 246.85 12.65 246.85 L2.68 246.85 C1.69 246.85 0.79 246.72 0 246.45
									 C0.42 243.31 3.7 240.87 7.66 240.87 C11.62 240.87 14.91 243.31 15.32 246.45 Z" class="st10"/>
					</g>
					<g id="shape307-36" v:mID="307" v:groupContext="shape" transform="translate(7.63737,-8.12522)">
						<title>Sheet.307</title>
						<path d="M8.52 242.58 C8.52 244.94 6.61 246.85 4.26 246.85 C1.9 246.85 0 244.94 0 242.58 C0 240.23 1.9 238.32
									 4.26 238.32 C6.61 238.32 8.52 240.23 8.52 242.58 Z" class="st10"/>
					</g>
				</g>
				<g id="group313-38" transform="translate(53.1294,-55.5175)" v:mID="313" v:groupContext="group">
					<title>Sheet.313</title>
					<g id="shape314-39" v:mID="314" v:groupContext="shape">
						<title>Sheet.314</title>
						<path d="M23.79 229.97 L23.79 239.94 C23.79 243.29 22.26 245.58 19.56 246.45 C18.77 246.72 17.87 246.85 16.88
									 246.85 L6.91 246.85 C5.92 246.85 5.02 246.72 4.24 246.45 C1.53 245.58 0 243.29 0 239.94 L0 229.97
									 C0 225.64 2.58 223.06 6.91 223.06 L16.88 223.06 C21.21 223.06 23.79 225.64 23.79 229.97 Z"
								class="st9"/>
					</g>
					<g id="shape315-41" v:mID="315" v:groupContext="shape" transform="translate(4.23576,0)">
						<title>Sheet.315</title>
						<path d="M15.32 246.45 C14.54 246.72 13.63 246.85 12.65 246.85 L2.68 246.85 C1.69 246.85 0.79 246.72 0 246.45
									 C0.42 243.31 3.7 240.87 7.66 240.87 C11.62 240.87 14.91 243.31 15.32 246.45 Z" class="st10"/>
					</g>
					<g id="shape316-43" v:mID="316" v:groupContext="shape" transform="translate(7.63737,-8.12522)">
						<title>Sheet.316</title>
						<path d="M8.52 242.58 C8.52 244.94 6.61 246.85 4.26 246.85 C1.9 246.85 0 244.94 0 242.58 C0 240.23 1.9 238.32
									 4.26 238.32 C6.61 238.32 8.52 240.23 8.52 242.58 Z" class="st10"/>
					</g>
				</g>
				<g id="group317-45" transform="translate(62.9992,-26.5789)" v:mID="317" v:groupContext="group">
					<title>Sheet.317</title>
					<g id="shape318-46" v:mID="318" v:groupContext="shape">
						<title>Sheet.318</title>
						<path d="M23.79 229.97 L23.79 239.94 C23.79 243.29 22.26 245.58 19.56 246.45 C18.77 246.72 17.87 246.85 16.88
									 246.85 L6.91 246.85 C5.92 246.85 5.02 246.72 4.24 246.45 C1.53 245.58 0 243.29 0 239.94 L0 229.97
									 C0 225.64 2.58 223.06 6.91 223.06 L16.88 223.06 C21.21 223.06 23.79 225.64 23.79 229.97 Z"
								class="st9"/>
					</g>
					<g id="shape319-48" v:mID="319" v:groupContext="shape" transform="translate(4.23576,0)">
						<title>Sheet.319</title>
						<path d="M15.32 246.45 C14.54 246.72 13.63 246.85 12.65 246.85 L2.68 246.85 C1.69 246.85 0.79 246.72 0 246.45
									 C0.42 243.31 3.7 240.87 7.66 240.87 C11.62 240.87 14.91 243.31 15.32 246.45 Z" class="st10"/>
					</g>
					<g id="shape320-50" v:mID="320" v:groupContext="shape" transform="translate(7.63737,-8.12522)">
						<title>Sheet.320</title>
						<path d="M8.52 242.58 C8.52 244.94 6.61 246.85 4.26 246.85 C1.9 246.85 0 244.94 0 242.58 C0 240.23 1.9 238.32
									 4.26 238.32 C6.61 238.32 8.52 240.23 8.52 242.58 Z" class="st10"/>
					</g>
				</g>
				<g id="group321-52" transform="translate(18.7604,-26.5789)" v:mID="321" v:groupContext="group">
					<title>Sheet.321</title>
					<g id="shape322-53" v:mID="322" v:groupContext="shape">
						<title>Sheet.322</title>
						<path d="M23.79 229.97 L23.79 239.94 C23.79 243.29 22.26 245.58 19.56 246.45 C18.77 246.72 17.87 246.85 16.88
									 246.85 L6.91 246.85 C5.92 246.85 5.02 246.72 4.24 246.45 C1.53 245.58 0 243.29 0 239.94 L0 229.97
									 C0 225.64 2.58 223.06 6.91 223.06 L16.88 223.06 C21.21 223.06 23.79 225.64 23.79 229.97 Z"
								class="st9"/>
					</g>
					<g id="shape323-55" v:mID="323" v:groupContext="shape" transform="translate(4.23576,0)">
						<title>Sheet.323</title>
						<path d="M15.32 246.45 C14.54 246.72 13.63 246.85 12.65 246.85 L2.68 246.85 C1.69 246.85 0.79 246.72 0 246.45
									 C0.42 243.31 3.7 240.87 7.66 240.87 C11.62 240.87 14.91 243.31 15.32 246.45 Z" class="st10"/>
					</g>
					<g id="shape324-57" v:mID="324" v:groupContext="shape" transform="translate(7.63737,-8.12522)">
						<title>Sheet.324</title>
						<path d="M8.52 242.58 C8.52 244.94 6.61 246.85 4.26 246.85 C1.9 246.85 0 244.94 0 242.58 C0 240.23 1.9 238.32
									 4.26 238.32 C6.61 238.32 8.52 240.23 8.52 242.58 Z" class="st10"/>
					</g>
				</g>
			</g>
			<g id="group353-59" transform="translate(168.617,-150.236)" v:mID="353" v:groupContext="group">
				<title>Sheet.353</title>
				<g id="shape354-60" v:mID="354" v:groupContext="shape">
					<title>Sheet.354</title>
					<path d="M0 207.56 L0 246.85 L27.43 246.85 L27.43 207.56 L0 207.56 Z" class="st11"/>
				</g>
				<g id="shape355-62" v:mID="355" v:groupContext="shape" transform="translate(-1.71863E-13,-39.2952)">
					<title>Sheet.355</title>
					<path d="M0 246.85 L8 238.84 L35.43 238.84 L27.43 246.85 L0 246.85 Z" class="st11"/>
				</g>
				<g id="shape356-64" v:mID="356" v:groupContext="shape" transform="translate(27.4287,0)">
					<title>Sheet.356</title>
					<path d="M0 246.85 L8 238.84 L8 199.54 L0 207.56 L0 246.85 Z" class="st11"/>
				</g>
				<g id="shape357-66" v:mID="357" v:groupContext="shape" transform="translate(0.500002,-28.4872)">
					<title>Sheet.357</title>
					<path d="M0 246.85 L26.5 246.85 L0 246.85 Z" class="st12"/>
					<path d="M0 246.85 L26.5 246.85" class="st13"/>
				</g>
				<g id="shape358-69" v:mID="358" v:groupContext="shape" transform="translate(0.285716,-28.702)">
					<title>Sheet.358</title>
					<path d="M0 246.85 L26.86 246.85 L0 246.85 Z" class="st12"/>
					<path d="M0 246.85 L26.86 246.85" class="st13"/>
				</g>
				<g id="shape359-72" v:mID="359" v:groupContext="shape" transform="translate(0.500002,-15.6035)">
					<title>Sheet.359</title>
					<path d="M0 246.85 L26.43 246.85 L0 246.85 Z" class="st12"/>
					<path d="M0 246.85 L26.43 246.85" class="st13"/>
				</g>
				<g id="shape360-75" v:mID="360" v:groupContext="shape" transform="translate(0.285716,-15.8182)">
					<title>Sheet.360</title>
					<path d="M0 246.85 L26.86 246.85 L0 246.85 Z" class="st12"/>
					<path d="M0 246.85 L26.86 246.85" class="st13"/>
				</g>
				<g id="shape361-78" v:mID="361" v:groupContext="shape" transform="translate(9.71434,-20.9717)">
					<title>Sheet.361</title>
					<path d="M0 246.85 L7.78 246.85 L0 246.85 Z" class="st12"/>
					<path d="M0 246.85 L7.78 246.85" class="st13"/>
				</g>
				<g id="shape362-81" v:mID="362" v:groupContext="shape" transform="translate(9.71434,-23.3338)">
					<title>Sheet.362</title>
					<path d="M0 246.85 L7.78 246.85 L0 246.85 Z" class="st12"/>
					<path d="M0 246.85 L7.78 246.85" class="st13"/>
				</g>
				<g id="shape363-84" v:mID="363" v:groupContext="shape" transform="translate(6.64289,-18.2518)">
					<title>Sheet.363</title>
					<path d="M13.72 246.85 L13.72 239.34 L0 239.34 L0 246.85 L13.72 246.85 Z" class="st14"/>
				</g>
			</g>
			<g id="shape366-86" v:mID="366" v:groupContext="shape" transform="translate(148.809,-198.425)">
				<title>Sheet.366</title>
				<desc>DNS</desc>
				<v:textBlock v:margins="rect(4,0,4,0)" v:tabSpace="42.5197"/>
				<v:textRect cx="36.4793" cy="237.642" width="72.96" height="18.4252"/>
				<rect x="0" y="228.429" width="72.9585" height="18.4252" class="st4"/>
				<text x="23.81" y="240.64" class="st15" v:langID="1033"><v:paragraph v:spLine="-1" v:horizAlign="1"/><v:tabList/>DNS</text>			</g>
			<g id="shape367-89" v:mID="367" v:groupContext="shape" transform="translate(49.4274,-190.63)">
				<title>Sheet.367</title>
				<desc>What is the IP address of xyz.com?</desc>
				<v:textBlock v:margins="rect(4,0,4,0)" v:tabSpace="42.5197"/>
				<v:textRect cx="50.7367" cy="237.642" width="101.48" height="18.4252"/>
				<rect x="0" y="228.429" width="101.473" height="18.4252" class="st4"/>
				<text x="16.5" y="234.89" class="st5" v:langID="1033"><v:paragraph v:spLine="-1" v:horizAlign="1"/><v:tabList/>What is the IP <tspan
							x="0.3" dy="1em" class="st3">address of xyz.com?</tspan></text>			</g>
			<g id="shape368-93" v:mID="368" v:groupContext="shape" transform="translate(77.2001,-147.402)">
				<title>Sheet.368</title>
				<path d="M0 246.85 L0 215.67 A5.66929 5.66929 0 0 1 5.67 210 L79.83 210" class="st16"/>
			</g>
			<g id="shape371-99" v:mID="371" v:groupContext="shape" transform="translate(90.8064,-147.924)">
				<title>Sheet.371</title>
				<desc>xyz.com is at 37.3.2.1</desc>
				<v:textBlock v:margins="rect(4,0,4,0)" v:tabSpace="42.5197"/>
				<v:textRect cx="40.6772" cy="232.681" width="81.36" height="28.3465"/>
				<rect x="0" y="218.508" width="81.3543" height="28.3465" class="st4"/>
				<text x="8.89" y="229.38" class="st5" v:langID="1033"><v:paragraph v:horizAlign="1"/><v:tabList/>xyz.com is at <tspan
							x="20.8" dy="1.2em" class="st3">37.3.2.1</tspan></text>			</g>
			<g id="shape372-103" v:mID="372" v:groupContext="shape" transform="translate(91.3734,-153.593)">
				<title>Sheet.372</title>
				<path d="M73.7 224.18 L5.67 224.18 A5.66929 5.66929 -180 0 0 -0 229.85 L0 238.81" class="st16"/>
			</g>
			<g id="shape375-108" v:mID="375" v:groupContext="shape" transform="translate(147.612,-104.021)">
				<title>Sheet.375</title>
				<path d="M0 246.85 L149.73 246.85" class="st18"/>
			</g>
			<g id="shape376-114" v:mID="376" v:groupContext="shape" transform="translate(213.225,-108.992)">
				<title>Sheet.376</title>
				<desc>https://xyz.com</desc>
				<v:textBlock v:margins="rect(4,0,4,0)" v:tabSpace="42.5197"/>
				<v:textRect cx="50.7367" cy="240.476" width="101.48" height="12.7559"/>
				<rect x="0" y="234.098" width="101.473" height="12.7559" class="st4"/>
				<text x="14.06" y="243.23" class="st5" v:langID="1033"><v:paragraph v:spLine="-1" v:horizAlign="1"/><v:tabList/>https://xyz.com</text>			</g>
			<g id="shape379-117" v:mID="379" v:groupContext="shape" transform="translate(80.0348,-18.4252)">
				<title>Sheet.379</title>
				<desc>Users</desc>
				<v:textBlock v:margins="rect(4,0,4,0)" v:tabSpace="42.5197"/>
				<v:textRect cx="36.4793" cy="237.642" width="72.96" height="18.4252"/>
				<rect x="0" y="228.429" width="72.9585" height="18.4252" class="st4"/>
				<text x="22.12" y="240.39" class="st5" v:langID="1033"><v:paragraph v:spLine="-1" v:horizAlign="1"/><v:tabList/>Users</text>			</g>
			<g id="shape381-120" v:mID="381" v:groupContext="shape" transform="translate(360.665,-138.898)">
				<title>Rectangle.381</title>
				<desc>DNS points to the load balancer’s IP</desc>
				<v:userDefs>
					<v:ud v:nameU="visVersion" v:val="VT0(15):26"/>
				</v:userDefs>
				<v:textBlock v:margins="rect(4,4,4,4)" v:tabSpace="42.5197"/>
				<v:textRect cx="50.7367" cy="228.236" width="101.48" height="37.2366"/>
				<rect x="0" y="209.618" width="101.473" height="37.2366" rx="2" ry="2" class="st20"/>
				<text x="11.55" y="225.24" class="st21" v:langID="1033"><v:paragraph v:horizAlign="1"/><v:tabList/>DNS points to the <tspan
							x="10.99" dy="1.2em" class="st3">load balancer</tspan>’s IP</text>			</g>
			<g id="shape383-124" v:mID="383" v:groupContext="shape" transform="translate(204.759,-72.9438)">
				<title>Sheet.383</title>
				<desc>Thousand of connections</desc>
				<v:textBlock v:margins="rect(4,0,4,0)" v:tabSpace="42.5197"/>
				<v:textRect cx="50.7367" cy="233.72" width="101.48" height="26.2688"/>
				<rect x="0" y="220.585" width="101.473" height="26.2688" class="st4"/>
				<text x="20.16" y="230.97" class="st22" v:langID="1033"><v:paragraph v:spLine="-1" v:horizAlign="1"/><v:tabList/>Thousand of <tspan
							x="21.38" dy="1em" class="st3">connections</tspan></text>			</g>
			<g id="shape384-128" v:mID="384" v:groupContext="shape" transform="translate(50.8379,-203.244)">
				<title>Circle</title>
				<desc>1</desc>
				<v:userDefs>
					<v:ud v:nameU="visVersion" v:val="VT0(15):26"/>
				</v:userDefs>
				<v:textBlock v:margins="rect(1,1,1,1)" v:tabSpace="42.5197"/>
				<v:textRect cx="6.09449" cy="240.76" width="10.67" height="9.14173"/>
				<path d="M0 240.76 A6.09449 6.09449 0 0 1 12.19 240.76 A6.09449 6.09449 0 1 1 0 240.76 Z" class="st23"/>
				<text x="3.31" y="243.76" class="st24" v:langID="1033"><v:paragraph v:horizAlign="1"/><v:tabList/>1</text>			</g>
			<g id="shape385-131" v:mID="385" v:groupContext="shape" transform="translate(255.829,-123.874)">
				<title>Circle.385</title>
				<desc>2</desc>
				<v:userDefs>
					<v:ud v:nameU="visVersion" v:val="VT0(15):26"/>
				</v:userDefs>
				<v:textBlock v:margins="rect(1,1,1,1)" v:tabSpace="42.5197"/>
				<v:textRect cx="6.09449" cy="240.76" width="10.67" height="9.14173"/>
				<path d="M0 240.76 A6.09449 6.09449 0 1 1 12.19 240.76 A6.09449 6.09449 0 0 1 0 240.76 Z" class="st23"/>
				<text x="3.31" y="243.76" class="st24" v:langID="1033"><v:paragraph v:horizAlign="1"/><v:tabList/>2</text>			</g>
			<g id="shape386-134" v:mID="386" v:groupContext="shape" transform="translate(424.372,-62.2175)">
				<title>Sheet.386</title>
				<desc>Load Balancer</desc>
				<v:textBlock v:margins="rect(4,0,4,0)" v:tabSpace="42.5197"/>
				<v:textRect cx="30.172" cy="233.999" width="60.35" height="25.7098"/>
				<rect x="0" y="221.144" width="60.344" height="25.7098" class="st4"/>
				<text x="17.94" y="231.25" class="st5" v:langID="1033"><v:paragraph v:spLine="-1" v:horizAlign="1"/><v:tabList/>Load <tspan
							x="8.46" dy="1em" class="st3">Balancer</tspan></text>			</g>
			<g id="shape387-138" v:mID="387" v:groupContext="shape" transform="translate(474.051,-102.047) rotate(6.71241E-06)">
				<title>Sheet.387</title>
				<path d="M0 246.85 L18.82 246.85" class="st25"/>
			</g>
			<g id="shape388-141" v:mID="388" v:groupContext="shape" transform="translate(739.833,58.6337) rotate(90)">
				<title>Sheet.388</title>
				<path d="M0 246.85 L151.37 246.85" class="st25"/>
			</g>
			<g id="shape389-144" v:mID="389" v:groupContext="shape" transform="translate(492.869,-48.189)">
				<title>Sheet.389</title>
				<path d="M0 246.85 L25.97 246.85" class="st25"/>
			</g>
			<g id="shape390-147" v:mID="390" v:groupContext="shape" transform="translate(492.869,-90.7087)">
				<title>Sheet.390</title>
				<path d="M0 246.85 L25.97 246.85" class="st25"/>
			</g>
			<g id="shape391-150" v:mID="391" v:groupContext="shape" transform="translate(492.869,-130.394)">
				<title>Sheet.391</title>
				<path d="M0 246.85 L25.97 246.85" class="st25"/>
			</g>
			<g id="group392-153" transform="translate(519.405,-31.1811)" v:mID="392" v:groupContext="group">
				<title>Sheet.392</title>
				<g id="group393-154" v:mID="393" v:groupContext="group">
					<title>Sheet.393</title>
					<g id="shape394-155" v:mID="394" v:groupContext="shape">
						<title>Sheet.394</title>
						<path d="M0 217.67 L0 246.85 L20.37 246.85 L20.37 217.67 L0 217.67 Z" class="st26"/>
					</g>
					<g id="shape395-157" v:mID="395" v:groupContext="shape" transform="translate(-1.29896E-13,-29.1855)">
						<title>Sheet.395</title>
						<path d="M0 246.85 L5.95 240.9 L26.31 240.9 L20.37 246.85 L0 246.85 Z" class="st26"/>
					</g>
					<g id="shape396-159" v:mID="396" v:groupContext="shape" transform="translate(20.372,0)">
						<title>Sheet.396</title>
						<path d="M0 246.85 L5.95 240.9 L5.95 211.72 L0 217.67 L0 246.85 Z" class="st27"/>
					</g>
					<g id="shape397-161" v:mID="397" v:groupContext="shape" transform="translate(0.371365,-21.1582)">
						<title>Sheet.397</title>
						<path d="M0 246.85 L19.68 246.85 L0 246.85 Z" class="st12"/>
						<path d="M0 246.85 L19.68 246.85" class="st13"/>
					</g>
					<g id="shape398-164" v:mID="398" v:groupContext="shape" transform="translate(0.212208,-21.3177)">
						<title>Sheet.398</title>
						<path d="M0 246.85 L19.95 246.85 L0 246.85 Z" class="st12"/>
						<path d="M0 246.85 L19.95 246.85" class="st13"/>
					</g>
					<g id="shape399-167" v:mID="399" v:groupContext="shape" transform="translate(0.371365,-11.5891)">
						<title>Sheet.399</title>
						<path d="M0 246.85 L19.63 246.85 L0 246.85 Z" class="st12"/>
						<path d="M0 246.85 L19.63 246.85" class="st13"/>
					</g>
					<g id="shape400-170" v:mID="400" v:groupContext="shape" transform="translate(0.212208,-11.7486)">
						<title>Sheet.400</title>
						<path d="M0 246.85 L19.95 246.85 L0 246.85 Z" class="st12"/>
						<path d="M0 246.85 L19.95 246.85" class="st13"/>
					</g>
					<g id="shape401-173" v:mID="401" v:groupContext="shape" transform="translate(7.2151,-15.5762)">
						<title>Sheet.401</title>
						<path d="M0 246.85 L5.78 246.85 L0 246.85 Z" class="st12"/>
						<path d="M0 246.85 L5.78 246.85" class="st13"/>
					</g>
					<g id="shape402-176" v:mID="402" v:groupContext="shape" transform="translate(7.2151,-17.3306)">
						<title>Sheet.402</title>
						<path d="M0 246.85 L5.78 246.85 L0 246.85 Z" class="st12"/>
						<path d="M0 246.85 L5.78 246.85" class="st13"/>
					</g>
					<g id="shape403-179" v:mID="403" v:groupContext="shape" transform="translate(4.93385,-13.5561)">
						<title>Sheet.403</title>
						<path d="M10.19 246.85 L10.19 241.27 L0 241.27 L0 246.85 L10.19 246.85 Z" class="st14"/>
					</g>
				</g>
				<g id="group406-181" transform="translate(3.59712E-14,-40.3975)" v:mID="406" v:groupContext="group">
					<title>Sheet.406</title>
					<g id="shape407-182" v:mID="407" v:groupContext="shape">
						<title>Sheet.407</title>
						<path d="M0 217.67 L0 246.85 L20.37 246.85 L20.37 217.67 L0 217.67 Z" class="st26"/>
					</g>
					<g id="shape408-184" v:mID="408" v:groupContext="shape" transform="translate(-1.29896E-13,-29.1855)">
						<title>Sheet.408</title>
						<path d="M0 246.85 L5.95 240.9 L26.31 240.9 L20.37 246.85 L0 246.85 Z" class="st26"/>
					</g>
					<g id="shape409-186" v:mID="409" v:groupContext="shape" transform="translate(20.372,0)">
						<title>Sheet.409</title>
						<path d="M0 246.85 L5.95 240.9 L5.95 211.72 L0 217.67 L0 246.85 Z" class="st27"/>
					</g>
					<g id="shape410-188" v:mID="410" v:groupContext="shape" transform="translate(0.371365,-21.1582)">
						<title>Sheet.410</title>
						<path d="M0 246.85 L19.68 246.85 L0 246.85 Z" class="st12"/>
						<path d="M0 246.85 L19.68 246.85" class="st13"/>
					</g>
					<g id="shape411-191" v:mID="411" v:groupContext="shape" transform="translate(0.212208,-21.3177)">
						<title>Sheet.411</title>
						<path d="M0 246.85 L19.95 246.85 L0 246.85 Z" class="st12"/>
						<path d="M0 246.85 L19.95 246.85" class="st13"/>
					</g>
					<g id="shape412-194" v:mID="412" v:groupContext="shape" transform="translate(0.371365,-11.5891)">
						<title>Sheet.412</title>
						<path d="M0 246.85 L19.63 246.85 L0 246.85 Z" class="st12"/>
						<path d="M0 246.85 L19.63 246.85" class="st13"/>
					</g>
					<g id="shape413-197" v:mID="413" v:groupContext="shape" transform="translate(0.212208,-11.7486)">
						<title>Sheet.413</title>
						<path d="M0 246.85 L19.95 246.85 L0 246.85 Z" class="st12"/>
						<path d="M0 246.85 L19.95 246.85" class="st13"/>
					</g>
					<g id="shape414-200" v:mID="414" v:groupContext="shape" transform="translate(7.2151,-15.5762)">
						<title>Sheet.414</title>
						<path d="M0 246.85 L5.78 246.85 L0 246.85 Z" class="st12"/>
						<path d="M0 246.85 L5.78 246.85" class="st13"/>
					</g>
					<g id="shape415-203" v:mID="415" v:groupContext="shape" transform="translate(7.2151,-17.3306)">
						<title>Sheet.415</title>
						<path d="M0 246.85 L5.78 246.85 L0 246.85 Z" class="st12"/>
						<path d="M0 246.85 L5.78 246.85" class="st13"/>
					</g>
					<g id="shape416-206" v:mID="416" v:groupContext="shape" transform="translate(4.93385,-13.5561)">
						<title>Sheet.416</title>
						<path d="M10.19 246.85 L10.19 241.27 L0 241.27 L0 246.85 L10.19 246.85 Z" class="st14"/>
					</g>
				</g>
				<g id="group419-208" transform="translate(2.79776E-14,-80.795)" v:mID="419" v:groupContext="group">
					<title>Sheet.419</title>
					<g id="shape420-209" v:mID="420" v:groupContext="shape">
						<title>Sheet.420</title>
						<path d="M0 217.67 L0 246.85 L20.37 246.85 L20.37 217.67 L0 217.67 Z" class="st26"/>
					</g>
					<g id="shape421-211" v:mID="421" v:groupContext="shape" transform="translate(-1.29896E-13,-29.1855)">
						<title>Sheet.421</title>
						<path d="M0 246.85 L5.95 240.9 L26.31 240.9 L20.37 246.85 L0 246.85 Z" class="st26"/>
					</g>
					<g id="shape422-213" v:mID="422" v:groupContext="shape" transform="translate(20.372,0)">
						<title>Sheet.422</title>
						<path d="M0 246.85 L5.95 240.9 L5.95 211.72 L0 217.67 L0 246.85 Z" class="st27"/>
					</g>
					<g id="shape423-215" v:mID="423" v:groupContext="shape" transform="translate(0.371365,-21.1582)">
						<title>Sheet.423</title>
						<path d="M0 246.85 L19.68 246.85 L0 246.85 Z" class="st12"/>
						<path d="M0 246.85 L19.68 246.85" class="st13"/>
					</g>
					<g id="shape424-218" v:mID="424" v:groupContext="shape" transform="translate(0.212208,-21.3177)">
						<title>Sheet.424</title>
						<path d="M0 246.85 L19.95 246.85 L0 246.85 Z" class="st12"/>
						<path d="M0 246.85 L19.95 246.85" class="st13"/>
					</g>
					<g id="shape425-221" v:mID="425" v:groupContext="shape" transform="translate(0.371365,-11.5891)">
						<title>Sheet.425</title>
						<path d="M0 246.85 L19.63 246.85 L0 246.85 Z" class="st12"/>
						<path d="M0 246.85 L19.63 246.85" class="st13"/>
					</g>
					<g id="shape426-224" v:mID="426" v:groupContext="shape" transform="translate(0.212208,-11.7486)">
						<title>Sheet.426</title>
						<path d="M0 246.85 L19.95 246.85 L0 246.85 Z" class="st12"/>
						<path d="M0 246.85 L19.95 246.85" class="st13"/>
					</g>
					<g id="shape427-227" v:mID="427" v:groupContext="shape" transform="translate(7.2151,-15.5762)">
						<title>Sheet.427</title>
						<path d="M0 246.85 L5.78 246.85 L0 246.85 Z" class="st12"/>
						<path d="M0 246.85 L5.78 246.85" class="st13"/>
					</g>
					<g id="shape428-230" v:mID="428" v:groupContext="shape" transform="translate(7.2151,-17.3306)">
						<title>Sheet.428</title>
						<path d="M0 246.85 L5.78 246.85 L0 246.85 Z" class="st12"/>
						<path d="M0 246.85 L5.78 246.85" class="st13"/>
					</g>
					<g id="shape429-233" v:mID="429" v:groupContext="shape" transform="translate(4.93385,-13.5561)">
						<title>Sheet.429</title>
						<path d="M10.19 246.85 L10.19 241.27 L0 241.27 L0 246.85 L10.19 246.85 Z" class="st14"/>
					</g>
				</g>
			</g>
			<g id="shape432-235" v:mID="432" v:groupContext="shape" transform="translate(507.915,-184.252)">
				<title>Sheet.432</title>
				<desc>Server Pool</desc>
				<v:textBlock v:margins="rect(4,0,4,0)" v:tabSpace="42.5197"/>
				<v:textRect cx="24.5027" cy="226.962" width="49.01" height="39.784"/>
				<rect x="0" y="207.07" width="49.0054" height="39.784" class="st4"/>
				<text x="8.3" y="224.21" class="st5" v:langID="1033"><v:paragraph v:spLine="-1" v:horizAlign="1"/><v:tabList/>Server <tspan
							x="13.49" dy="1em" class="st3">Pool</tspan></text>			</g>
			<g id="shape433-239" v:mID="433" v:groupContext="shape" transform="translate(355.453,-104.031)">
				<title>Sheet.433</title>
				<path d="M0 246.85 L30.1 246.85" class="st25"/>
			</g>
			<g id="group434-242" transform="translate(433.336,-89.1568)" v:mID="434" v:groupContext="group">
				<title>Sheet.434</title>
				<g id="group435-243" v:mID="435" v:groupContext="group">
					<title>A.2</title>
					<g id="group436-244" v:mID="436" v:groupContext="group">
						<title>Sheet.436</title>
						<g id="shape437-245" v:mID="437" v:groupContext="shape" transform="translate(0,-0.00063418)">
							<title>Sheet.437</title>
							<path d="M0 246.85 L38.17 246.85 L38.17 221.9 L0 221.9 L0 246.85 Z" class="st28"/>
						</g>
						<g id="shape438-247" v:mID="438" v:groupContext="shape" transform="translate(38.1738,0)">
							<title>Sheet.438</title>
							<path d="M4.24 240.62 L0 246.85 L0 221.9 L4.24 216.66 L4.24 240.62 Z" class="st28"/>
						</g>
						<g id="shape439-249" v:mID="439" v:groupContext="shape" transform="translate(0,-24.9506)">
							<title>Sheet.439</title>
							<path d="M6.74 241.61 L42.42 241.61 L38.17 246.85 L0 246.85 L6.74 241.61 Z" class="st28"/>
						</g>
					</g>
					<g id="group440-251" transform="translate(0.9982,-3.74293)" v:mID="440" v:groupContext="group">
						<title>Sheet.440</title>
						<g id="shape441-252" v:mID="441" v:groupContext="shape">
							<title>Sheet.441</title>
							<path d="M31.94 238.62 L25.45 238.62 L25.45 237.62 L31.94 237.62 L31.94 235.88 L35.68 238.12 L31.94 240.12
										 L31.94 238.62 ZM6.49 238.62 L0 238.62 L0 237.62 L6.49 237.62 L6.49 235.88 L10.23 238.12
										 L6.49 240.12 L6.49 238.62 ZM30.94 231.88 L25.45 235.38 L24.95 234.38 L30.19 230.89 L29.44
										 229.64 L33.68 229.39 L31.69 233.13 L30.94 231.88 L30.94 231.88 ZM30.94 244.36 L25.45 240.87
										 L24.95 241.61 L30.19 245.11 L29.44 246.6 L33.68 246.85 L31.69 243.11 L30.94 244.36 L30.94
										 244.36 Z" class="st29"/>
						</g>
						<g id="shape442-254" v:mID="442" v:groupContext="shape" transform="translate(11.7241,-2.74029)">
							<title>C</title>
							<path d="M12.47 240.62 C12.47 244.11 9.73 246.85 6.24 246.85 C2.74 246.85 0 244.11 0 240.62 C0 237.12
										 2.74 234.38 6.24 234.38 C9.73 234.38 12.47 237.12 12.47 240.62 L12.47 240.62 Z"
									class="st28"/>
						</g>
					</g>
					<g id="shape443-256" v:mID="443" v:groupContext="shape" transform="translate(12.7223,-6.48323)">
						<title>C</title>
						<path d="M12.47 240.62 C12.47 244.11 9.73 246.85 6.24 246.85 C2.74 246.85 0 244.11 0 240.62 C0 237.12 2.74
									 234.38 6.24 234.38 C9.73 234.38 12.47 237.12 12.47 240.62 L12.47 240.62 Z" class="st30"/>
					</g>
				</g>
			</g>
			<g id="group89-258" transform="translate(310.702,-91.1174)" v:mID="89" v:groupContext="group">
				<title>Router</title>
				<g id="shape90-259" v:mID="90" v:groupContext="shape" transform="translate(0.0682166,0)">
					<title>Sheet.90</title>
					<path d="M44.68 239.19 C44.68 239.19 44.68 239.19 44.68 239.19 C44.68 243.43 34.65 246.85 22.38 246.85 C10.03
								 246.85 0 243.43 0 239.19 C0 234.95 10.03 231.53 22.38 231.53 C34.65 231.53 44.68 234.95 44.68 239.19
								 Z" class="st31"/>
				</g>
				<g id="shape91-261" v:mID="91" v:groupContext="shape" transform="translate(2.23821E-13,-7.45652)">
					<title>Sheet.91</title>
					<path d="M0 235.91 L0 246.85 L44.75 246.85 L44.75 235.91 L0 235.91 L0 235.91 L0 235.91 Z" class="st31"/>
				</g>
				<g id="shape92-263" v:mID="92" v:groupContext="shape" transform="translate(0.0682166,-10.9453)">
					<title>Sheet.92</title>
					<path d="M44.68 239.19 C44.68 239.19 44.68 239.19 44.68 239.19 C44.68 243.43 34.65 246.85 22.38 246.85 C10.03
								 246.85 0 243.43 0 239.19 C0 234.95 10.03 231.53 22.38 231.53 C34.65 231.53 44.68 234.95 44.68 239.19
								 Z" class="st32"/>
				</g>
				<g id="shape93-265" v:mID="93" v:groupContext="shape" transform="translate(0.0682166,-10.9453)">
					<title>Sheet.93</title>
					<path d="M44.68 239.19 C44.68 239.19 44.68 239.19 44.68 239.19 C44.68 243.43 34.65 246.85 22.38 246.85 C10.03
								 246.85 0 243.43 0 239.19 C0 234.95 10.03 231.53 22.38 231.53 C34.65 231.53 44.68 234.95 44.68 239.19"
							class="st33"/>
				</g>
				<g id="shape94-268" v:mID="94" v:groupContext="shape" transform="translate(23.2619,-18.9491)">
					<title>Sheet.94</title>
					<path d="M0 245.76 L3.27 246.85 L11.05 243.78 L14.67 244.67 L12.76 241.86 L3.41 241.86 L7.3 242.82 L0 245.76
								 L0 245.76 L0 245.76 Z" class="st34"/>
				</g>
				<g id="shape95-270" v:mID="95" v:groupContext="shape" transform="translate(7.16275,-12.9976)">
					<title>Sheet.95</title>
					<path d="M14.73 242.95 L11.46 241.86 L3.68 245.01 L0 244.12 L1.98 246.85 L11.32 246.85 L7.37 245.9 L14.73 242.95
								 L14.73 242.95 L14.73 242.95 Z" class="st34"/>
				</g>
				<g id="shape96-272" v:mID="96" v:groupContext="shape" transform="translate(7.98135,-19.086)">
					<title>Sheet.96</title>
					<path d="M0 242.95 L3.27 241.86 L11.05 245.01 L14.73 244.12 L12.82 246.85 L3.41 246.85 L7.37 245.9 L0 242.95
								 L0 242.95 L0 242.95 Z" class="st34"/>
				</g>
				<g id="shape97-274" v:mID="97" v:groupContext="shape" transform="translate(22.7844,-12.6556)">
					<title>Sheet.97</title>
					<path d="M14.67 245.76 L11.39 246.85 L3.62 243.78 L0 244.67 L1.91 241.86 L11.26 241.86 L7.37 242.82 L14.67 245.76
								 L14.67 245.76 L14.67 245.76 Z" class="st34"/>
				</g>
			</g>
			<g id="shape444-276" v:mID="444" v:groupContext="shape" transform="translate(385.548,-95.0393)">
				<title>Rectangle.444</title>
				<desc>37.3.2.1</desc>
				<v:userDefs>
					<v:ud v:nameU="visVersion" v:val="VT0(15):26"/>
				</v:userDefs>
				<v:textBlock v:margins="rect(4,4,4,4)" v:tabSpace="42.5197"/>
				<v:textRect cx="22.3751" cy="237.642" width="44.76" height="18.4252"/>
				<rect x="0" y="228.429" width="44.7501" height="18.4252" rx="2" ry="2" class="st35"/>
				<text x="4.3" y="240.64" class="st36" v:langID="1033"><v:paragraph v:horizAlign="1"/><v:tabList/>37.3.2.1</text>			</g>
			<g id="group446-279" transform="translate(369.354,-114.132)" v:mID="446" v:groupContext="group">
				<title>Sheet.446</title>
				<g id="shape447-280" v:mID="447" v:groupContext="shape" transform="translate(0,-2.04735)">
					<title>Rectangle.380</title>
					<v:userDefs>
						<v:ud v:nameU="visVersion" v:val="VT0(15):26"/>
					</v:userDefs>
					<rect x="0" y="232.681" width="75.1181" height="14.1732" rx="1" ry="1" class="st6"/>
				</g>
				<g id="shape448-282" v:mID="448" v:groupContext="shape" transform="translate(0.800674,0)">
					<title>Sheet.448</title>
					<desc>www.xyz.com</desc>
					<v:textBlock v:margins="rect(4,0,4,0)" v:tabSpace="42.5197"/>
					<v:textRect cx="36.4793" cy="237.642" width="72.96" height="18.4252"/>
					<rect x="0" y="228.429" width="72.9585" height="18.4252" class="st4"/>
					<text x="2.87" y="240.39" class="st5" v:langID="1033"><v:paragraph v:spLine="-1" v:horizAlign="1"/><v:tabList/>www.xyz.com</text>				</g>
			</g>
			<g id="shape449-285" v:mID="449" v:groupContext="shape" transform="translate(453.8,-181.219)">
				<title>Sheet.449</title>
				<desc>10.0.0.0/24</desc>
				<v:textBlock v:margins="rect(4,0,4,0)" v:tabSpace="42.5197"/>
				<v:textRect cx="30.172" cy="233.999" width="60.35" height="25.7098"/>
				<rect x="0" y="221.144" width="60.344" height="25.7098" class="st4"/>
				<text x="2.65" y="236.75" class="st5" v:langID="1033"><v:paragraph v:spLine="-1" v:horizAlign="1"/><v:tabList/>10.0.0.0/24</text>			</g>
			<g id="shape450-288" v:mID="450" v:groupContext="shape" transform="translate(369.323,-81.6554) rotate(-26.5651)">
				<title>Sheet.450</title>
				<path d="M0 246.85 L28.99 246.85" class="st37"/>
			</g>
			<g id="shape451-294" v:mID="451" v:groupContext="shape" transform="translate(583.166,-76.492) rotate(24.7751)">
				<title>Sheet.451</title>
				<path d="M0 246.85 L31.55 246.85" class="st37"/>
			</g>
			<g id="shape452-299" v:mID="452" v:groupContext="shape" transform="translate(667.145,-7.33969) rotate(49.3987)">
				<title>Sheet.452</title>
				<path d="M0 246.85 L43.23 246.85" class="st37"/>
			</g>
			<g id="shape453-304" v:mID="453" v:groupContext="shape" transform="translate(360.756,-104.031)">
				<title>Sheet.453</title>
				<path d="M0 246.85 L11.71 246.85" class="st18"/>
			</g>
			<g id="shape467-309" v:mID="467" v:groupContext="shape" transform="translate(493.436,-170.079)">
				<title>Sheet.467</title>
				<path d="M0 246.85 L25.97 246.85" class="st25"/>
			</g>
			<g id="group454-312" transform="translate(519.405,-155.344)" v:mID="454" v:groupContext="group">
				<title>Sheet.454</title>
				<g id="shape455-313" v:mID="455" v:groupContext="shape">
					<title>Sheet.455</title>
					<path d="M0 217.67 L0 246.85 L20.37 246.85 L20.37 217.67 L0 217.67 Z" class="st26"/>
				</g>
				<g id="shape456-315" v:mID="456" v:groupContext="shape" transform="translate(-1.29896E-13,-29.1855)">
					<title>Sheet.456</title>
					<path d="M0 246.85 L5.95 240.9 L26.31 240.9 L20.37 246.85 L0 246.85 Z" class="st26"/>
				</g>
				<g id="shape457-317" v:mID="457" v:groupContext="shape" transform="translate(20.372,0)">
					<title>Sheet.457</title>
					<path d="M0 246.85 L5.95 240.9 L5.95 211.72 L0 217.67 L0 246.85 Z" class="st27"/>
				</g>
				<g id="shape458-319" v:mID="458" v:groupContext="shape" transform="translate(0.371365,-21.1582)">
					<title>Sheet.458</title>
					<path d="M0 246.85 L19.68 246.85 L0 246.85 Z" class="st12"/>
					<path d="M0 246.85 L19.68 246.85" class="st13"/>
				</g>
				<g id="shape459-322" v:mID="459" v:groupContext="shape" transform="translate(0.212208,-21.3177)">
					<title>Sheet.459</title>
					<path d="M0 246.85 L19.95 246.85 L0 246.85 Z" class="st12"/>
					<path d="M0 246.85 L19.95 246.85" class="st13"/>
				</g>
				<g id="shape460-325" v:mID="460" v:groupContext="shape" transform="translate(0.371365,-11.5891)">
					<title>Sheet.460</title>
					<path d="M0 246.85 L19.63 246.85 L0 246.85 Z" class="st12"/>
					<path d="M0 246.85 L19.63 246.85" class="st13"/>
				</g>
				<g id="shape461-328" v:mID="461" v:groupContext="shape" transform="translate(0.212208,-11.7486)">
					<title>Sheet.461</title>
					<path d="M0 246.85 L19.95 246.85 L0 246.85 Z" class="st12"/>
					<path d="M0 246.85 L19.95 246.85" class="st13"/>
				</g>
				<g id="shape462-331" v:mID="462" v:groupContext="shape" transform="translate(7.2151,-15.5762)">
					<title>Sheet.462</title>
					<path d="M0 246.85 L5.78 246.85 L0 246.85 Z" class="st12"/>
					<path d="M0 246.85 L5.78 246.85" class="st13"/>
				</g>
				<g id="shape463-334" v:mID="463" v:groupContext="shape" transform="translate(7.2151,-17.3306)">
					<title>Sheet.463</title>
					<path d="M0 246.85 L5.78 246.85 L0 246.85 Z" class="st12"/>
					<path d="M0 246.85 L5.78 246.85" class="st13"/>
				</g>
				<g id="shape464-337" v:mID="464" v:groupContext="shape" transform="translate(4.93385,-13.5561)">
					<title>Sheet.464</title>
					<path d="M10.19 246.85 L10.19 241.27 L0 241.27 L0 246.85 L10.19 246.85 Z" class="st14"/>
				</g>
			</g>
			<g id="shape468-339" v:mID="468" v:groupContext="shape" transform="translate(285.37,-21.5677) rotate(-51.9343)">
				<title>Sheet.468</title>
				<path d="M0 246.85 L50.73 246.85" class="st37"/>
			</g>
			<g id="shape469-344" v:mID="469" v:groupContext="shape" transform="translate(337.988,-11.3386)">
				<title>Rectangle.469</title>
				<desc>The load balancer sends requests to different servers, spread...</desc>
				<v:userDefs>
					<v:ud v:nameU="visVersion" v:val="VT0(15):26"/>
				</v:userDefs>
				<v:textBlock v:margins="rect(4,4,4,4)" v:tabSpace="42.5197"/>
				<v:textRect cx="73.7008" cy="221.342" width="147.41" height="51.0236"/>
				<rect x="0" y="195.831" width="147.402" height="51.0236" rx="2" ry="2" class="st20"/>
				<text x="18.94" y="207.59" class="st21" v:langID="1033"><v:paragraph v:spLine="-1.1" v:horizAlign="1"/><v:tabList/>The load balancer sends <tspan
							x="10.34" dy="1.1em" class="st3">requests to different servers, </tspan><tspan x="13.97" dy="1.1em"
							class="st39">spreading traffic to avoid </tspan><tspan x="51.47" dy="1.1em" class="st39">overload</tspan>.</text>			</g>
		</g>
	</g>
</svg>
