<?xml version="1.0" encoding="UTF-8" standalone="no"?>
<!DOCTYPE svg PUBLIC "-//W3C//DTD SVG 1.1//EN" "http://www.w3.org/Graphics/SVG/1.1/DTD/svg11.dtd">
<!-- Generated by Microsoft Visio, SVG Export dish-antenna.svg Page-83 -->
<svg xmlns="http://www.w3.org/2000/svg" xmlns:xlink="http://www.w3.org/1999/xlink" xmlns:ev="http://www.w3.org/2001/xml-events"
		xmlns:v="http://schemas.microsoft.com/visio/2003/SVGExtensions/" width="5.43307in" height="1.7559in"
		viewBox="0 0 391.181 126.425" xml:space="preserve" color-interpolation-filters="sRGB" class="st9">
	<v:documentProperties v:langID="1026" v:metric="true" v:viewMarkup="false">
		<v:userDefs>
			<v:ud v:nameU="msvNoAutoConnect" v:val="VT0(1):26"/>
		</v:userDefs>
	</v:documentProperties>

	<style type="text/css">
	<![CDATA[
		.st1 {fill:#f2f2f2;stroke:none;stroke-linecap:round;stroke-linejoin:round;stroke-width:0.239999}
		.st2 {fill:#94989b;stroke:none;stroke-linecap:butt;stroke-width:9.375}
		.st3 {fill:#d8d8d8;stroke:none;stroke-linecap:butt;stroke-width:9.375}
		.st4 {fill:#bfbfbf;stroke:none;stroke-linecap:butt;stroke-width:9.375}
		.st5 {fill:#333333;stroke:none;stroke-linecap:butt;stroke-width:9.375}
		.st6 {fill:#262626;stroke:none;stroke-linecap:butt;stroke-width:9.375}
		.st7 {fill:#7f7f7f;stroke:none;stroke-linecap:butt;stroke-width:9.375}
		.st8 {fill:#595959;stroke:none;stroke-linecap:butt;stroke-width:9.375}
		.st9 {fill:none;fill-rule:evenodd;font-size:12px;overflow:visible;stroke-linecap:square;stroke-miterlimit:3}
	]]>
	</style>

	<g v:mID="141" v:index="81" v:groupContext="foregroundPage">
		<title>Page-83</title>
		<v:pageProperties v:drawingScale="0.0393701" v:pageScale="0.0393701" v:drawingUnits="24" v:shadowOffsetX="9"
				v:shadowOffsetY="-9"/>
		<g id="shape28-1" v:mID="28" v:groupContext="shape" transform="translate(130.501,-4.25196)">
			<title>Ellipse.1035</title>
			<v:userDefs>
				<v:ud v:nameU="visVersion" v:val="VT0(15):26"/>
			</v:userDefs>
			<path d="M0 118.19 A72.9399 8.18297 180 1 1 145.88 118.19 A72.9399 8.18297 180 1 1 -0 118.19 Z" class="st1"/>
		</g>
		<g id="group7-3" transform="translate(146.802,-12.6734)" v:mID="7" v:groupContext="group">
			<title>Sheet.7</title>
			<g id="shape8-4" v:mID="8" v:groupContext="shape" transform="translate(12.8859,-22.5969)">
				<title>Sheet.8</title>
				<path d="M28.2 124 L8.4 105.32 C8.4 105.32 0 116.9 0 126.43 L27.27 126.43 C27.27 124.93 28.2 124 28.2 124 Z"
						class="st2"/>
			</g>
			<g id="group9-6" transform="translate(12.5124,-16.8076)" v:mID="9" v:groupContext="group">
				<title>Sheet.9</title>
				<g id="shape10-7" v:mID="10" v:groupContext="shape" transform="translate(5.7893,-5.7893)">
					<title>Sheet.10</title>
					<path d="M26.33 123.81 C17.74 126.43 0 108.87 2.8 100.28 L5.04 93.18 L33.43 121.57 L26.33 123.81 Z" class="st3"/>
				</g>
				<g id="shape11-9" v:mID="11" v:groupContext="shape">
					<title>Sheet.11</title>
					<path d="M10.27 41.08 C4.67 46.68 1.68 53.97 1.12 62 C0 76.38 6.72 93.18 19.98 106.63 C33.43 119.89 50.24 126.43
								 64.8 125.49 C73.02 124.93 80.3 121.94 85.91 116.34 L10.27 41.08 Z" class="st4"/>
				</g>
			</g>
			<g id="group12-11" transform="translate(73.9536,-77.8754)" v:mID="12" v:groupContext="group">
				<title>Sheet.12</title>
				<g id="shape13-12" v:mID="13" v:groupContext="shape" transform="translate(1.68076,-1.86752)">
					<title>Sheet.13</title>
					<path d="M0 105.32 C3.55 108.31 7.28 111.67 11.21 115.41 C14.94 119.14 18.49 122.88 21.48 126.43 C21.1 122.32
								 18.3 117.27 13.82 112.79 C9.34 108.5 4.11 105.7 0 105.32 Z" class="st3"/>
				</g>
				<g id="shape14-14" v:mID="14" v:groupContext="shape">
					<title>Sheet.14</title>
					<path d="M34.36 126.43 C33.8 119.89 29.32 111.67 22.04 104.39 C14.75 97.29 6.54 92.81 0 92.25 C5.79 97.11 11.95
								 102.52 17.93 108.68 C24.09 114.66 29.51 120.82 34.36 126.43 Z" class="st3"/>
				</g>
			</g>
			<g id="shape15-16" v:mID="15" v:groupContext="shape" transform="translate(16.6209,-20.7294)">
				<title>Sheet.15</title>
				<path d="M81.42 120.64 C75.63 126.43 53.97 114.29 33.06 93.56 C12.14 72.64 0 51.16 5.98 45.19 C11.77 39.4 33.43 51.54
							 54.34 72.45 C75.07 93.18 87.4 114.66 81.42 120.64 Z" class="st2"/>
			</g>
			<g id="shape16-18" v:mID="16" v:groupContext="shape" transform="translate(51.1699,-55.0917)">
				<title>Sheet.16</title>
				<path d="M5.04 126.43 L0 121.38 L22.6 102.15 L24.46 103.83 L5.04 126.43 Z" class="st5"/>
			</g>
			<g id="shape17-20" v:mID="17" v:groupContext="shape" transform="translate(44.4469,-48.5554)">
				<title>Sheet.17</title>
				<path d="M10.64 126.43 C5.04 121.38 0 115.97 0 115.97 L8.4 110.18 L16.25 118.02 L10.64 126.43 Z" class="st6"/>
			</g>
			<g id="group18-22" transform="translate(3.73503,-3.92178)" v:mID="18" v:groupContext="group">
				<title>Sheet.18</title>
				<g id="shape19-23" v:mID="19" v:groupContext="shape" transform="translate(66.6703,-70.4054)">
					<title>Sheet.19</title>
					<path d="M13.63 123.44 C10.64 126.43 5.98 126.43 2.99 123.44 C0 120.45 0 115.78 2.99 112.98 C5.98 109.99 10.64
								 109.99 13.63 112.98 C16.62 115.97 16.43 120.64 13.63 123.44 Z" class="st7"/>
				</g>
				<g id="shape20-25" v:mID="20" v:groupContext="shape">
					<title>Sheet.20</title>
					<path d="M9.15 107.75 C4.11 107.75 0 111.67 0 116.71 L0 126.43 L16.06 126.43 L16.06 107.75 L9.15 107.75 Z"
							class="st7"/>
				</g>
			</g>
			<g id="shape21-27" v:mID="21" v:groupContext="shape" transform="translate(18.1149,-3.73503)">
				<title>Sheet.21</title>
				<path d="M22.04 107.56 L0 107.56 L0 126.43 L31 126.43 L31 116.71 C31 111.49 27.08 107.56 22.04 107.56 Z"
						class="st4"/>
			</g>
			<g id="shape22-29" v:mID="22" v:groupContext="shape">
				<title>Sheet.22</title>
				<rect x="0" y="121.196" width="16.0606" height="5.22905" class="st7"/>
			</g>
			<g id="group23-31" transform="translate(11.7654,-5.25802E-13)" v:mID="23" v:groupContext="group">
				<title>Sheet.23</title>
				<g id="shape24-32" v:mID="24" v:groupContext="shape" transform="translate(2.42777,9.9476E-14)">
					<title>Sheet.24</title>
					<rect x="0" y="121.196" width="38.8443" height="5.22905" class="st4"/>
				</g>
				<g id="shape25-34" v:mID="25" v:groupContext="shape" transform="translate(0,-22.4102)">
					<title>Sheet.25</title>
					<path d="M5.98 108.12 L1.68 108.12 L1.68 110.92 C0.56 112.61 0 114.85 0 117.27 C0 119.7 0.56 121.94 1.68 123.62
								 L1.68 126.43 L5.98 126.43 C9.34 126.43 11.95 122.32 11.95 117.27 C11.95 112.05 9.34 108.12 5.98
								 108.12 Z" class="st4"/>
				</g>
			</g>
			<g id="shape26-36" v:mID="26" v:groupContext="shape" transform="translate(7.28331,-22.5969)">
				<title>Sheet.26</title>
				<ellipse cx="5.97605" cy="117.274" rx="5.97605" ry="9.15083" class="st8"/>
			</g>
			<g id="shape27-38" v:mID="27" v:groupContext="shape" transform="translate(9.89784,-24.2777)">
				<title>Sheet.27</title>
				<ellipse cx="4.29529" cy="118.955" rx="4.29529" ry="7.47006" class="st7"/>
			</g>
		</g>
	</g>
</svg>
